<?xml version="1.0" encoding="utf-8"?><svg xmlns="http://www.w3.org/2000/svg" width="33.937" height="33.91" viewBox="0 0 33.937 33.91"><defs><style>.ecls-1{fill:#fff;fill-rule:evenodd}</style></defs><path id="eWrite_copy" data-name="Write copy" class="ecls-1" d="M658.514 1281.09l3.03 3.03-12.608 13.06h-3.5v-3.49l13.076-12.6m.027-5.09a2.121 2.121 0 00-1.5.62l-15.839 15.27v9.53h9.539l15.28-15.83a2.114 2.114 0 000-2.99l-5.981-5.98a2.121 2.121 0 00-1.5-.62zm3.856 28.6a1.055 1.055 0 01-1.06 1.05h-23.316a1.055 1.055 0 01-1.06-1.05v-23.3a1.057 1.057 0 011.06-1.06h5.3a2.12 2.12 0 002.12-2.12 2.12 2.12 0 00-2.12-2.12h-8.479a2.12 2.12 0 00-2.12 2.12v29.65a2.12 2.12 0 002.12 2.12h29.678a2.12 2.12 0 002.12-2.12v-8.47a2.12 2.12 0 00-2.12-2.12 2.12 2.12 0 00-2.12 2.12v5.3z" transform="translate(-632.719 -1276)"/></svg>