<?xml version="1.0" encoding="utf-8"?><svg xmlns="http://www.w3.org/2000/svg" width="69" height="69" viewBox="0 0 69 69"><defs><style>.fcls-1{fill:#fff;fill-rule:evenodd}</style></defs><path id="fWrite_copy_2" data-name="Write copy 2" class="fcls-1" d="M268.458 3680.37l6.162 6.16-25.642 26.59h-7.115v-7.11l26.6-25.64m.055-10.36a4.289 4.289 0 00-3.042 1.26l-32.231 31.07v19.41h19.4l31.076-32.23a4.31 4.31 0 000-6.09l-12.165-12.16a4.288 4.288 0 00-3.041-1.26zm7.842 58.2a2.16 2.16 0 01-2.156 2.16h-47.431a2.16 2.16 0 01-2.156-2.16v-47.42a2.153 2.153 0 012.156-2.16h10.778a4.311 4.311 0 004.312-4.31 4.311 4.311 0 00-4.312-4.31h-17.246a4.311 4.311 0 00-4.311 4.31v60.36a4.311 4.311 0 004.311 4.31h60.362a4.311 4.311 0 004.311-4.31v-17.25a4.311 4.311 0 00-4.311-4.31 4.312 4.312 0 00-4.312 4.31v10.78z" transform="translate(-216 -3670)"/></svg>