<?xml version="1.0" encoding="utf-8"?><svg viewBox="0 0 185 176" xmlns="http://www.w3.org/2000/svg" xmlns:xlink="http://www.w3.org/1999/xlink"><style>:root>svg{display:none}:root>svg:target{display:block}</style><svg id="Logo" viewBox="0 0 79 75" xmlns="http://www.w3.org/2000/svg"><defs><style>.acls-1{fill:#fff;opacity:.75}.acls-2{fill:#11749e}.acls-3{font-size:38.349px;fill:#f5f5f5;text-anchor:middle;font-family:"Open Sans";font-weight:700;text-transform:uppercase}</style></defs><path class="acls-1" d="M12 8h67v67H12z"/><path id="aRectangle_9_copy" data-name="Rectangle 9 copy" class="acls-2" d="M0 0h67v67H0z"/><text id="aCS" class="acls-3" transform="matrix(.794 0 0 .794 33.136 43.965)">CS</text></svg><svg viewBox="0 0 33.75 33.91" id="Search" xmlns="http://www.w3.org/2000/svg"><defs><style>.bcls-1{fill:#f1fbff;fill-rule:evenodd}</style></defs><path id="bSearch_and_thou_shall_find_" data-name="Search (and thou shall find)" class="bcls-1" d="M943.378 1280.24a8.468 8.468 0 016.867 13.37l-.829 1.17-1.166.83a8.314 8.314 0 01-4.872 1.57 8.47 8.47 0 010-16.94m0-4.24a12.71 12.71 0 000 25.42 12.52 12.52 0 007.316-2.36l10.154 10.21a2.116 2.116 0 002.986-3l-10.155-10.21a12.707 12.707 0 00-10.3-20.06z" transform="translate(-930.719 -1276)"/></svg><svg viewBox="0 0 29.69 33.91" id="Simon_says" xmlns="http://www.w3.org/2000/svg"><defs><style>.ccls-1{fill:#fff;fill-rule:evenodd}</style></defs><path id="cSimon_says" data-name="Simon says" class="ccls-1" d="M1248.2 1280.34a10.6 10.6 0 01.03 21.19l-.13-.01c-.12-.01-.23-.02-.35-.02l-.71-.03-.68.2-7.09 2.12.86-3.39.47-1.86-1.09-1.59a10.587 10.587 0 018.69-16.61m0-4.23a14.821 14.821 0 00-12.18 23.25l-2.69 10.64 14.24-4.27c.21.01.42.03.63.03a14.825 14.825 0 000-29.65z" transform="translate(-1233.31 -1276.09)"/></svg><svg viewBox="0 0 185 176" id="W" xmlns="http://www.w3.org/2000/svg"><defs><style>.dcls-1{font-size:30px;opacity:.18;fill:#fff;text-anchor:middle;font-family:Roboto-BoldCondensed,Roboto;font-weight:700}</style></defs><text id="dW" class="dcls-1" transform="translate(92.554 176.12) scale(8.239)"><tspan x="0">W</tspan></text></svg><svg viewBox="0 0 33.937 33.91" id="Write" xmlns="http://www.w3.org/2000/svg"><defs><style>.ecls-1{fill:#fff;fill-rule:evenodd}</style></defs><path id="eWrite_copy" data-name="Write copy" class="ecls-1" d="M658.514 1281.09l3.03 3.03-12.608 13.06h-3.5v-3.49l13.076-12.6m.027-5.09a2.121 2.121 0 00-1.5.62l-15.839 15.27v9.53h9.539l15.28-15.83a2.114 2.114 0 000-2.99l-5.981-5.98a2.121 2.121 0 00-1.5-.62zm3.856 28.6a1.055 1.055 0 01-1.06 1.05h-23.316a1.055 1.055 0 01-1.06-1.05v-23.3a1.057 1.057 0 011.06-1.06h5.3a2.12 2.12 0 002.12-2.12 2.12 2.12 0 00-2.12-2.12h-8.479a2.12 2.12 0 00-2.12 2.12v29.65a2.12 2.12 0 002.12 2.12h29.678a2.12 2.12 0 002.12-2.12v-8.47a2.12 2.12 0 00-2.12-2.12 2.12 2.12 0 00-2.12 2.12v5.3z" transform="translate(-632.719 -1276)"/></svg><svg viewBox="0 0 69 69" id="Write_Quick" xmlns="http://www.w3.org/2000/svg"><defs><style>.fcls-1{fill:#fff;fill-rule:evenodd}</style></defs><path id="fWrite_copy_2" data-name="Write copy 2" class="fcls-1" d="M268.458 3680.37l6.162 6.16-25.642 26.59h-7.115v-7.11l26.6-25.64m.055-10.36a4.289 4.289 0 00-3.042 1.26l-32.231 31.07v19.41h19.4l31.076-32.23a4.31 4.31 0 000-6.09l-12.165-12.16a4.288 4.288 0 00-3.041-1.26zm7.842 58.2a2.16 2.16 0 01-2.156 2.16h-47.431a2.16 2.16 0 01-2.156-2.16v-47.42a2.153 2.153 0 012.156-2.16h10.778a4.311 4.311 0 004.312-4.31 4.311 4.311 0 00-4.312-4.31h-17.246a4.311 4.311 0 00-4.311 4.31v60.36a4.311 4.311 0 004.311 4.31h60.362a4.311 4.311 0 004.311-4.31v-17.25a4.311 4.311 0 00-4.311-4.31 4.312 4.312 0 00-4.312 4.31v10.78z" transform="translate(-216 -3670)"/></svg></svg>