<?xml version="1.0" encoding="utf-8"?>
<!-- Generator: Adobe Illustrator 23.0.2, SVG Export Plug-In . SVG Version: 6.00 Build 0)  -->
<svg version="1.1" xmlns="http://www.w3.org/2000/svg" xmlns:xlink="http://www.w3.org/1999/xlink" x="0px" y="0px"
	 viewBox="0 0 594 639" style="enable-background:new 0 0 594 639;" xml:space="preserve">
<style type="text/css">
	.st0{fill:#65E496;}
	.st1{fill:#44444F;}
	.st2{fill:#3D3D47;}
</style>
<g id="Слой_2">
	<rect x="282" y="261" class="st0" width="163" height="362"/>
</g>
<g id="book">
	<path class="st1" d="M419.5,579.5c-12,12-31.5,12-43.5,0s-12-31.5,0-43.5l68.9-68.9v-39.6L338.7,533.7c-12,12-31.5,12-43.5,0
		c-12-12-12-31.5,0-43.5L445,340.5V5c0-2.8-2.2-5-5-5H5C2.2,0,0,2.2,0,5v629c0,2.8,2.2,5,5,5h435c2.8,0,5-2.2,5-5v-79.9L419.5,579.5
		z"/>
	<rect class="st2" width="62.7" height="639"/>
</g>
</svg>
