<?xml version="1.0" encoding="utf-8"?>
<!-- Generator: Adobe Illustrator 23.0.0, SVG Export Plug-In . SVG Version: 6.00 Build 0)  -->
<svg version="1.1" id="Слой_1" xmlns="http://www.w3.org/2000/svg" xmlns:xlink="http://www.w3.org/1999/xlink" x="0px" y="0px"
	 viewBox="0 0 1408 140" style="enable-background:new 0 0 1408 140;" xml:space="preserve">
<style type="text/css">
	.st0{clip-path:url(#SVGID_2_);}
	.st1{fill:#F9DD79;}
</style>
<g>
	<defs>
		<rect id="SVGID_1_" width="1408" height="140"/>
	</defs>
	<clipPath id="SVGID_2_">
		<use xlink:href="#SVGID_1_"  style="overflow:visible;"/>
	</clipPath>
	<g class="st0">
		<path class="st1" d="M618.5,58.8L595.2,68l23.3,9.2v3.9l-27.6-11.1v-4.2l27.6-11.1V58.8L618.5,58.8z"/>
		<path class="st1" d="M646.2,56.6c4.2,0,7.5,1.2,10,3.7c2.5,2.4,3.7,6,3.7,10.6v19.4h-4.5v-19c0-3.5-0.9-6.1-2.6-8
			c-1.7-1.8-4.2-2.7-7.4-2.7c-3.6,0-6.4,1.1-8.6,3.2c-2.1,2.1-3.1,5.1-3.1,8.8v17.6h-4.5V43.1h4.5v19.6c1.2-2,2.9-3.5,5.1-4.5
			C641,57.1,643.4,56.6,646.2,56.6L646.2,56.6L646.2,56.6z"/>
		<path class="st1" d="M701.3,75h-27.9c0.3,3.5,1.6,6.3,4,8.5c2.4,2.1,5.5,3.2,9.1,3.2c2.1,0,4-0.4,5.7-1.1c1.7-0.8,3.2-1.9,4.5-3.3
			l2.5,2.9c-1.5,1.8-3.3,3.1-5.6,4.1c-2.2,0.9-4.6,1.4-7.3,1.4c-3.4,0-6.5-0.7-9.1-2.2c-2.6-1.5-4.7-3.5-6.2-6.1
			c-1.5-2.6-2.2-5.5-2.2-8.8c0-3.3,0.7-6.2,2.1-8.8c1.4-2.6,3.4-4.6,5.8-6c2.5-1.4,5.3-2.2,8.4-2.2c3.1,0,5.9,0.7,8.3,2.2
			c2.5,1.4,4.4,3.5,5.8,6c1.4,2.5,2.1,5.5,2.1,8.8L701.3,75L701.3,75z M685.2,60.5c-3.2,0-5.9,1-8.1,3.1c-2.2,2-3.4,4.7-3.7,8h23.7
			c-0.3-3.3-1.5-6-3.7-8C691.2,61.5,688.5,60.5,685.2,60.5z"/>
		<path class="st1" d="M721.3,56.6c4.4,0,7.7,1.1,10,3.3c2.3,2.2,3.5,5.4,3.5,9.7v20.8h-4.3v-5.2c-1,1.7-2.5,3.1-4.5,4.1
			c-1.9,1-4.3,1.5-7,1.5c-3.7,0-6.7-0.9-8.9-2.7c-2.2-1.8-3.3-4.1-3.3-7.1c0-2.8,1-5.1,3-6.9c2.1-1.7,5.3-2.6,9.8-2.6h10.6v-2
			c0-2.9-0.8-5.1-2.4-6.6c-1.6-1.5-4-2.3-7-2.3c-2.1,0-4.1,0.4-6.1,1.1c-1.9,0.7-3.6,1.6-5,2.9l-2-3.4c1.7-1.4,3.7-2.5,6.1-3.3
			C716.2,57,718.7,56.6,721.3,56.6L721.3,56.6L721.3,56.6z M719.7,87.1c2.5,0,4.7-0.6,6.5-1.7c1.8-1.2,3.2-2.9,4.1-5.1v-5.5h-10.5
			c-5.7,0-8.6,2-8.6,6c0,2,0.7,3.5,2.2,4.6C715,86.5,717,87.1,719.7,87.1L719.7,87.1z"/>
		<path class="st1" d="M777.6,43.1v47.2h-4.3v-6.6c-1.4,2.2-3.2,4-5.4,5.2c-2.2,1.2-4.7,1.8-7.5,1.8c-3.1,0-6-0.7-8.5-2.2
			c-2.5-1.4-4.5-3.5-6-6c-1.4-2.6-2.2-5.5-2.2-8.8c0-3.3,0.7-6.3,2.2-8.8c1.4-2.6,3.4-4.6,6-6c2.5-1.4,5.4-2.2,8.5-2.2
			c2.7,0,5.1,0.6,7.3,1.7c2.2,1.1,4,2.7,5.4,4.9V43.1L777.6,43.1L777.6,43.1L777.6,43.1z M760.8,86.6c2.3,0,4.4-0.5,6.3-1.6
			c1.9-1.1,3.4-2.7,4.4-4.6c1.1-2,1.6-4.3,1.6-6.8c0-2.5-0.5-4.8-1.6-6.8c-1.1-2-2.5-3.5-4.4-4.6c-1.9-1.1-4-1.7-6.3-1.7
			c-2.4,0-4.5,0.6-6.4,1.7c-1.9,1.1-3.3,2.6-4.4,4.6c-1.1,2-1.6,4.3-1.6,6.8c0,2.5,0.5,4.8,1.6,6.8c1.1,2,2.6,3.5,4.4,4.6
			C756.3,86.1,758.4,86.6,760.8,86.6z"/>
		<path class="st1" d="M815.9,65.9v4.2l-27.6,11.1v-3.9l23.3-9.2l-23.3-9.2v-4L815.9,65.9L815.9,65.9z"/>
		<path class="st1" d="M935.8,22.9l-18.7,7.4l18.7,7.4v3.2L913.7,32v-3.4l22.1-8.9V22.9L935.8,22.9z"/>
		<path class="st1" d="M958.2,21.1c2.5,0,4.8,0.6,6.8,1.7c2,1.1,3.6,2.7,4.8,4.8c1.2,2.1,1.7,4.4,1.7,7.1s-0.6,5-1.7,7.1
			c-1.2,2.1-2.7,3.7-4.8,4.8c-2,1.2-4.3,1.7-6.8,1.7c-2.2,0-4.2-0.5-6-1.4c-1.8-1-3.2-2.3-4.3-4.1v5.3h-3.4V10.3h3.6v16.1
			c1.1-1.7,2.5-3,4.3-3.9C954,21.6,956,21.1,958.2,21.1L958.2,21.1L958.2,21.1z M957.9,45.2c1.9,0,3.6-0.4,5.1-1.3
			c1.5-0.9,2.7-2.1,3.6-3.7c0.9-1.6,1.3-3.4,1.3-5.4c0-2-0.4-3.9-1.3-5.4c-0.8-1.6-2-2.8-3.6-3.7c-1.5-0.9-3.2-1.3-5.1-1.3
			c-1.9,0-3.6,0.4-5.1,1.3c-1.5,0.8-2.7,2.1-3.6,3.7c-0.8,1.6-1.3,3.4-1.3,5.4c0,2,0.4,3.9,1.3,5.4c0.9,1.6,2.1,2.8,3.6,3.7
			C954.3,44.8,956,45.2,957.9,45.2z"/>
		<path class="st1" d="M989.7,48.4c-2.6,0-4.9-0.6-7-1.7c-2.1-1.2-3.7-2.8-4.9-4.9c-1.2-2.1-1.8-4.4-1.8-7c0-2.6,0.6-5,1.8-7
			s2.8-3.7,4.9-4.8c2.1-1.2,4.4-1.7,7-1.7c2.6,0,4.9,0.6,7,1.7c2.1,1.2,3.7,2.8,4.8,4.8c1.2,2.1,1.8,4.4,1.8,7c0,2.6-0.6,5-1.8,7
			c-1.2,2.1-2.8,3.7-4.8,4.9C994.6,47.8,992.3,48.4,989.7,48.4z M989.7,45.2c1.9,0,3.6-0.4,5.1-1.3c1.5-0.9,2.7-2.1,3.6-3.7
			c0.8-1.6,1.3-3.4,1.3-5.4c0-2-0.4-3.9-1.3-5.4c-0.8-1.6-2-2.8-3.6-3.7c-1.5-0.9-3.2-1.3-5.1-1.3c-1.9,0-3.6,0.4-5.1,1.3
			c-1.5,0.8-2.7,2.1-3.6,3.7c-0.8,1.6-1.3,3.4-1.3,5.4c0,2,0.4,3.9,1.3,5.4c0.9,1.6,2.1,2.8,3.6,3.7
			C986.1,44.8,987.8,45.2,989.7,45.2z"/>
		<path class="st1" d="M1035,10.3v37.8h-3.4v-5.3c-1.1,1.8-2.5,3.2-4.3,4.1c-1.8,1-3.8,1.4-6,1.4c-2.5,0-4.8-0.6-6.8-1.7
			c-2-1.2-3.6-2.8-4.8-4.8c-1.2-2.1-1.7-4.4-1.7-7.1c0-2.6,0.6-5,1.7-7.1s2.7-3.7,4.8-4.8c2-1.2,4.3-1.7,6.8-1.7
			c2.2,0,4.1,0.5,5.8,1.4c1.8,0.9,3.2,2.2,4.3,3.9V10.3L1035,10.3L1035,10.3L1035,10.3z M1021.6,45.2c1.9,0,3.5-0.4,5-1.3
			c1.5-0.9,2.7-2.1,3.6-3.7c0.9-1.6,1.3-3.4,1.3-5.4s-0.4-3.9-1.3-5.4c-0.8-1.6-2-2.8-3.6-3.7c-1.5-0.9-3.2-1.3-5-1.3
			c-1.9,0-3.6,0.4-5.1,1.3c-1.5,0.8-2.7,2.1-3.5,3.7c-0.8,1.6-1.3,3.4-1.3,5.4s0.4,3.9,1.3,5.4c0.9,1.6,2.1,2.8,3.5,3.7
			C1018,44.8,1019.7,45.2,1021.6,45.2L1021.6,45.2z"/>
		<path class="st1" d="M1067.4,21.3l-13.3,30c-1.1,2.5-2.3,4.3-3.8,5.3c-1.4,1.1-3.1,1.6-5.1,1.6c-1.3,0-2.5-0.2-3.6-0.6
			c-1.1-0.4-2.1-1-2.9-1.8l1.7-2.7c1.4,1.4,3,2,4.9,2c1.2,0,2.3-0.3,3.1-1c0.9-0.7,1.7-1.8,2.4-3.5l1.2-2.6L1040,21.3h3.8l10.1,22.8
			l10-22.8L1067.4,21.3L1067.4,21.3L1067.4,21.3z"/>
		<path class="st1" d="M1093.1,28.6V32l-22.1,8.9v-3.2l18.7-7.4l-18.7-7.4v-3.2L1093.1,28.6L1093.1,28.6z"/>
		<path class="st1" d="M565.9,12.6L547.3,20l18.7,7.4v3.2l-22.1-8.9v-3.4l22.1-8.9L565.9,12.6L565.9,12.6z"/>
		<path class="st1" d="M588.1,10.8c3.3,0,6,1,8,3c2,1.9,3,4.8,3,8.5v15.5h-3.6V22.6c0-2.8-0.7-4.9-2.1-6.4s-3.4-2.2-5.9-2.2
			c-2.9,0-5.2,0.9-6.8,2.6c-1.7,1.7-2.5,4.1-2.5,7.1v14.1h-3.6V0h3.6v15.7c1-1.6,2.3-2.8,4.1-3.6S585.9,10.8,588.1,10.8L588.1,10.8
			L588.1,10.8z"/>
		<path class="st1" d="M615.1,2.1v35.7h-3.7V5.4h-8.4V2.1L615.1,2.1L615.1,2.1L615.1,2.1z"/>
		<path class="st1" d="M646.6,18.3v3.4l-22.1,8.9v-3.2l18.7-7.4l-18.7-7.4V9.4L646.6,18.3L646.6,18.3z"/>
		<path class="st1" d="M1136.9,112.1l-18.7,7.4l18.7,7.4v3.2l-22.1-8.9v-3.4l22.1-8.9V112.1z"/>
		<path class="st1" d="M1156.4,137.5c-2.6,0-4.9-0.6-7-1.7c-2.1-1.2-3.7-2.8-4.9-4.9c-1.2-2.1-1.8-4.4-1.8-7c0-2.6,0.6-5,1.8-7
			c1.2-2.1,2.8-3.7,4.9-4.8c2.1-1.2,4.4-1.7,7-1.7s4.9,0.6,6.9,1.7c2.1,1.2,3.7,2.8,4.8,4.8c1.2,2.1,1.8,4.4,1.8,7
			c0,2.6-0.6,5-1.8,7c-1.2,2.1-2.8,3.7-4.8,4.9C1161.3,136.9,1159,137.5,1156.4,137.5z M1156.4,134.3c1.9,0,3.6-0.4,5.1-1.3
			c1.5-0.9,2.7-2.1,3.6-3.7c0.8-1.6,1.3-3.4,1.3-5.4s-0.4-3.9-1.3-5.4c-0.8-1.6-2-2.8-3.6-3.7c-1.5-0.9-3.2-1.3-5.1-1.3
			c-1.9,0-3.6,0.4-5.1,1.3c-1.5,0.8-2.7,2.1-3.6,3.7c-0.8,1.6-1.3,3.4-1.3,5.4s0.4,3.9,1.3,5.4c0.9,1.6,2.1,2.8,3.6,3.7
			C1152.8,133.9,1154.5,134.3,1156.4,134.3z"/>
		<path class="st1" d="M1177.3,99.5h3.6v37.8h-3.6V99.5z"/>
		<path class="st1" d="M1211.6,117.8v3.4l-22.1,8.9v-3.2l18.7-7.4l-18.7-7.4v-3.2L1211.6,117.8z"/>
		<path class="st1" d="M373.5,103.3l-18.7,7.4l18.7,7.4v3.2l-22.1-8.9V109l22.1-8.9V103.3z"/>
		<path class="st1" d="M415.4,101.5c3.3,0,6,1,7.9,2.9c1.9,1.9,2.9,4.8,2.9,8.6v15.5h-3.6v-15.2c0-2.8-0.7-4.9-2-6.4
			c-1.3-1.5-3.2-2.2-5.6-2.2c-2.8,0-5,0.9-6.5,2.6c-1.6,1.7-2.4,4.1-2.4,7.1v14.1h-3.6v-15.2c0-2.8-0.7-4.9-2-6.4
			c-1.3-1.5-3.2-2.2-5.7-2.2c-2.7,0-4.9,0.9-6.5,2.6c-1.6,1.7-2.4,4.1-2.4,7.1v14.1h-3.6v-26.8h3.5v4.9c0.9-1.6,2.3-2.9,4-3.8
			s3.6-1.3,5.8-1.3c2.2,0,4.2,0.5,5.8,1.4c1.7,1,2.9,2.4,3.7,4.2c1-1.8,2.4-3.1,4.2-4.1C410.9,102,413,101.5,415.4,101.5
			L415.4,101.5z"/>
		<path class="st1" d="M459.2,116.2h-22.3c0.2,2.8,1.3,5,3.2,6.8c1.9,1.7,4.4,2.5,7.3,2.5c1.7,0,3.2-0.3,4.6-0.9
			c1.4-0.6,2.6-1.5,3.6-2.6l2,2.3c-1.2,1.4-2.7,2.5-4.5,3.3c-1.8,0.7-3.7,1.1-5.8,1.1c-2.7,0-5.2-0.6-7.3-1.7
			c-2.1-1.2-3.7-2.8-4.9-4.9c-1.2-2.1-1.8-4.4-1.8-7c0-2.6,0.6-5,1.7-7c1.1-2.1,2.7-3.7,4.7-4.8c2-1.2,4.2-1.7,6.7-1.7
			s4.7,0.6,6.6,1.7c2,1.2,3.5,2.8,4.6,4.8c1.1,2,1.7,4.4,1.7,7L459.2,116.2z M446.3,104.6c-2.6,0-4.7,0.8-6.5,2.5
			c-1.7,1.6-2.7,3.8-2.9,6.4h18.9c-0.2-2.6-1.2-4.8-3-6.4C451.1,105.5,448.9,104.6,446.3,104.6L446.3,104.6z"/>
		<path class="st1" d="M480.6,126.9c-0.7,0.6-1.5,1.1-2.5,1.4c-1,0.3-2,0.5-3.1,0.5c-2.5,0-4.4-0.7-5.8-2c-1.4-1.4-2-3.3-2-5.8
			v-16.2h-4.8v-3.1h4.8v-5.9h3.6v5.9h8.1v3.1h-8.1v16c0,1.6,0.4,2.8,1.2,3.7c0.8,0.8,2,1.2,3.5,1.2c0.7,0,1.5-0.1,2.1-0.4
			c0.7-0.2,1.3-0.6,1.8-1L480.6,126.9z"/>
		<path class="st1" d="M496.5,101.5c3.5,0,6.2,0.9,8,2.6c1.9,1.7,2.8,4.3,2.8,7.7v16.6h-3.4v-4.2c-0.8,1.4-2,2.5-3.6,3.3
			c-1.6,0.8-3.4,1.2-5.6,1.2c-3,0-5.3-0.7-7.1-2.1c-1.8-1.4-2.6-3.3-2.6-5.7c0-2.3,0.8-4.1,2.4-5.5c1.7-1.4,4.3-2.1,7.9-2.1h8.5
			v-1.6c0-2.3-0.6-4.1-1.9-5.2c-1.3-1.2-3.2-1.8-5.6-1.8c-1.7,0-3.3,0.3-4.9,0.9c-1.6,0.5-2.9,1.3-4,2.3l-1.6-2.7
			c1.4-1.2,3-2,4.9-2.6C492.4,101.8,494.4,101.5,496.5,101.5z M495.3,125.9c2,0,3.8-0.5,5.2-1.4c1.5-0.9,2.5-2.3,3.2-4.1v-4.4h-8.4
			c-4.6,0-6.8,1.6-6.8,4.8c0,1.6,0.6,2.8,1.8,3.7C491.5,125.5,493.1,125.9,495.3,125.9L495.3,125.9z"/>
		<path class="st1" d="M537.7,109v3.4l-22.1,8.9v-3.2l18.7-7.4l-18.7-7.4v-3.2L537.7,109z"/>
		<path class="st1" d="M340.8,32.5l-14,5.5l14,5.5v2.4l-16.6-6.6v-2.5l16.6-6.7V32.5z"/>
		<path class="st1" d="M352.6,51.6c-1.6,0-3.2-0.2-4.7-0.7c-1.5-0.5-2.6-1.1-3.5-1.8l1.2-2.1c0.8,0.7,1.9,1.2,3.2,1.6
			c1.3,0.4,2.6,0.6,4,0.6c1.8,0,3.2-0.3,4-0.8c0.9-0.6,1.3-1.4,1.3-2.4c0-0.7-0.2-1.3-0.7-1.7c-0.5-0.4-1.1-0.8-1.8-1
			c-0.7-0.2-1.7-0.4-2.9-0.6c-1.6-0.3-2.9-0.6-3.9-0.9c-1-0.3-1.8-0.9-2.5-1.6c-0.7-0.8-1-1.8-1-3.2c0-1.7,0.7-3.1,2.1-4.1
			c1.4-1.1,3.3-1.6,5.8-1.6c1.3,0,2.6,0.2,3.9,0.5c1.3,0.3,2.4,0.8,3.2,1.3l-1.2,2.2c-1.6-1.1-3.6-1.7-5.9-1.7c-1.7,0-3,0.3-3.9,0.9
			c-0.9,0.6-1.3,1.4-1.3,2.4c0,0.8,0.2,1.4,0.7,1.8c0.5,0.5,1.1,0.8,1.9,1c0.7,0.2,1.8,0.4,3,0.6c1.6,0.3,2.9,0.6,3.8,0.9
			c1,0.3,1.8,0.8,2.5,1.6c0.7,0.7,1,1.8,1,3.1c0,1.8-0.7,3.2-2.2,4.2C357.2,51.1,355.2,51.6,352.6,51.6L352.6,51.6z"/>
		<path class="st1" d="M383.3,42.2h-16.7c0.2,2.1,1,3.8,2.4,5.1c1.4,1.3,3.3,1.9,5.5,1.9c1.2,0,2.4-0.2,3.4-0.6c1-0.5,1.9-1.1,2.7-2
			l1.5,1.8c-0.9,1.1-2,1.9-3.3,2.4c-1.3,0.6-2.8,0.8-4.4,0.8c-2.1,0-3.9-0.4-5.5-1.3c-1.6-0.9-2.8-2.1-3.7-3.7
			c-0.9-1.6-1.3-3.3-1.3-5.3s0.4-3.7,1.3-5.3c0.9-1.6,2-2.8,3.5-3.6c1.5-0.9,3.2-1.3,5-1.3c1.9,0,3.5,0.4,5,1.3
			c1.5,0.9,2.6,2.1,3.5,3.6c0.8,1.5,1.3,3.3,1.3,5.3L383.3,42.2z M373.6,33.5c-1.9,0-3.6,0.6-4.9,1.9c-1.3,1.2-2,2.8-2.2,4.8h14.2
			c-0.2-2-0.9-3.6-2.2-4.8C377.2,34.1,375.6,33.5,373.6,33.5z"/>
		<path class="st1" d="M397.1,51.6c-2,0-3.8-0.4-5.3-1.3c-1.5-0.9-2.8-2.1-3.7-3.6c-0.9-1.6-1.3-3.3-1.3-5.3s0.4-3.7,1.3-5.3
			c0.9-1.6,2.1-2.8,3.7-3.6c1.6-0.9,3.3-1.3,5.3-1.3c1.7,0,3.3,0.3,4.6,1c1.4,0.7,2.4,1.6,3.2,2.9l-2,1.4c-0.7-1-1.5-1.7-2.5-2.2
			c-1-0.5-2.1-0.8-3.3-0.8c-1.4,0-2.8,0.3-3.9,1c-1.1,0.6-2,1.6-2.7,2.8c-0.6,1.2-1,2.6-1,4.1c0,1.6,0.3,2.9,1,4.1
			c0.7,1.2,1.6,2.1,2.7,2.8c1.2,0.6,2.5,1,3.9,1c1.2,0,2.3-0.2,3.3-0.7c1-0.5,1.9-1.2,2.5-2.2l2,1.4c-0.8,1.3-1.9,2.3-3.2,3
			C400.4,51.3,398.8,51.6,397.1,51.6L397.1,51.6z"/>
		<path class="st1" d="M421,50.2c-0.5,0.5-1.1,0.8-1.9,1.1c-0.7,0.2-1.5,0.3-2.3,0.3c-1.9,0-3.3-0.5-4.3-1.5c-1-1-1.5-2.5-1.5-4.3
			V33.6h-3.6v-2.3h3.6v-4.4h2.7v4.4h6.1v2.3h-6.1v12c0,1.2,0.3,2.1,0.9,2.8c0.6,0.6,1.5,0.9,2.6,0.9c0.6,0,1.1-0.1,1.6-0.3
			c0.5-0.2,1-0.4,1.4-0.8L421,50.2L421,50.2L421,50.2z"/>
		<path class="st1" d="M425.9,31.3h2.7v20.1h-2.7V31.3z M427.3,26.9c-0.6,0-1-0.2-1.4-0.6c-0.4-0.4-0.6-0.8-0.6-1.4
			c0-0.5,0.2-1,0.6-1.3c0.4-0.4,0.9-0.6,1.4-0.6s1,0.2,1.4,0.6c0.4,0.4,0.6,0.8,0.6,1.3c0,0.6-0.2,1-0.6,1.4
			C428.3,26.7,427.9,26.9,427.3,26.9z"/>
		<path class="st1" d="M444.3,51.6c-1.9,0-3.7-0.4-5.2-1.3c-1.5-0.9-2.8-2.1-3.7-3.7c-0.9-1.6-1.3-3.3-1.3-5.3s0.4-3.7,1.3-5.3
			c0.9-1.6,2.1-2.8,3.7-3.6c1.5-0.9,3.3-1.3,5.2-1.3c1.9,0,3.7,0.4,5.2,1.3c1.5,0.9,2.8,2.1,3.6,3.6c0.9,1.6,1.3,3.3,1.3,5.3
			s-0.4,3.7-1.3,5.3c-0.9,1.6-2.1,2.8-3.6,3.7C448,51.2,446.3,51.6,444.3,51.6z M444.3,49.2c1.4,0,2.7-0.3,3.8-1
			c1.1-0.7,2-1.6,2.7-2.8c0.6-1.2,1-2.6,1-4.1s-0.3-2.9-1-4.1c-0.6-1.2-1.5-2.1-2.7-2.8c-1.1-0.7-2.4-1-3.8-1c-1.4,0-2.7,0.3-3.8,1
			c-1.1,0.6-2,1.6-2.7,2.8c-0.6,1.2-1,2.6-1,4.1s0.3,2.9,1,4.1c0.7,1.2,1.5,2.1,2.7,2.8C441.6,48.9,442.9,49.2,444.3,49.2z"/>
		<path class="st1" d="M470.2,31.2c2.5,0,4.5,0.7,6,2.2c1.5,1.5,2.2,3.6,2.2,6.4v11.6h-2.7V40c0-2.1-0.5-3.7-1.6-4.8
			s-2.5-1.6-4.5-1.6c-2.2,0-3.9,0.6-5.1,1.9c-1.2,1.3-1.9,3-1.9,5.3v10.5H460V31.3h2.6V35c0.7-1.2,1.8-2.2,3-2.8
			C467,31.5,468.5,31.2,470.2,31.2L470.2,31.2L470.2,31.2z"/>
		<path class="st1" d="M501.2,36.8v2.5l-16.6,6.6v-2.4l14-5.5l-14-5.5v-2.4L501.2,36.8z"/>
		<path class="st1" d="M266.1,10.3l-10.5,4.2l10.5,4.2v1.8l-12.4-5v-1.9l12.4-5V10.3z"/>
		<path class="st1" d="M270.9,9.4h2v15.1h-2V9.4z M272,6.1c-0.4,0-0.8-0.1-1.1-0.4c-0.3-0.3-0.4-0.6-0.4-1c0-0.4,0.1-0.7,0.4-1
			c0.3-0.3,0.6-0.4,1.1-0.4s0.8,0.1,1.1,0.4c0.3,0.3,0.4,0.6,0.4,1c0,0.4-0.1,0.8-0.4,1.1C272.7,5.9,272.4,6.1,272,6.1L272,6.1z"/>
		<path class="st1" d="M297.3,9.3c1.9,0,3.4,0.5,4.4,1.6c1.1,1.1,1.6,2.7,1.6,4.8v8.7h-2v-8.5c0-1.6-0.4-2.8-1.1-3.6
			c-0.7-0.8-1.8-1.2-3.2-1.2c-1.6,0-2.8,0.5-3.7,1.5c-0.9,1-1.3,2.3-1.3,4v7.9h-2v-8.5c0-1.6-0.4-2.8-1.1-3.6
			c-0.7-0.8-1.8-1.2-3.2-1.2c-1.5,0-2.8,0.5-3.7,1.5c-0.9,1-1.3,2.3-1.3,4v7.9h-2V9.4h1.9v2.8c0.5-0.9,1.3-1.6,2.2-2.1
			c1-0.5,2-0.7,3.3-0.7c1.3,0,2.3,0.3,3.3,0.8c0.9,0.5,1.6,1.3,2.1,2.4c0.6-1,1.3-1.8,2.4-2.3C294.8,9.5,296,9.3,297.3,9.3
			L297.3,9.3L297.3,9.3z"/>
		<path class="st1" d="M322.8,9.4v13.2c0,2.6-0.6,4.4-1.9,5.7c-1.2,1.2-3.1,1.9-5.6,1.9c-1.4,0-2.7-0.2-4-0.6c-1.2-0.4-2.2-1-3-1.7
			l1-1.5c0.7,0.6,1.6,1.2,2.6,1.5c1,0.4,2.1,0.5,3.3,0.5c1.9,0,3.3-0.4,4.2-1.3c0.9-0.9,1.3-2.3,1.3-4.1v-1.9
			c-0.6,1-1.5,1.7-2.5,2.2c-1,0.5-2.1,0.7-3.4,0.7c-1.4,0-2.7-0.3-3.9-0.9c-1.1-0.6-2-1.5-2.7-2.6c-0.6-1.1-1-2.4-1-3.8
			s0.3-2.7,1-3.8c0.7-1.1,1.6-2,2.7-2.6c1.1-0.6,2.4-0.9,3.9-0.9c1.3,0,2.4,0.3,3.5,0.8c1,0.5,1.9,1.3,2.5,2.2V9.4L322.8,9.4
			L322.8,9.4L322.8,9.4z M315.1,22.1c1.1,0,2.1-0.2,2.9-0.7c0.9-0.5,1.6-1.1,2-2c0.5-0.8,0.7-1.8,0.7-2.9c0-1.1-0.2-2-0.7-2.8
			c-0.5-0.8-1.2-1.5-2-1.9c-0.9-0.5-1.8-0.7-2.9-0.7c-1.1,0-2.1,0.2-2.9,0.7c-0.9,0.5-1.5,1.1-2,1.9c-0.5,0.8-0.7,1.8-0.7,2.9
			c0,1.1,0.2,2,0.7,2.9c0.5,0.8,1.2,1.5,2,2C313.1,21.8,314.1,22.1,315.1,22.1z"/>
		<path class="st1" d="M340.1,13.5v1.9l-12.4,5v-1.8l10.5-4.2l-10.5-4.2V8.4L340.1,13.5z"/>
		<path class="st1" d="M1020.5,80.2l-14,5.5l14,5.5v2.4L1004,87v-2.5l16.5-6.7V80.2z"/>
		<path class="st1" d="M1034,78.9c2.6,0,4.6,0.7,6,2c1.4,1.3,2.1,3.2,2.1,5.8v12.5h-2.6V96c-0.6,1-1.5,1.9-2.7,2.4
			c-1.2,0.6-2.6,0.9-4.2,0.9c-2.2,0-4-0.5-5.3-1.6c-1.3-1.1-2-2.5-2-4.2c0-1.7,0.6-3.1,1.8-4.1c1.3-1,3.2-1.6,5.9-1.6h6.3v-1.2
			c0-1.7-0.5-3-1.4-3.9c-1-0.9-2.4-1.4-4.2-1.4c-1.3,0-2.5,0.2-3.7,0.6c-1.2,0.4-2.2,1-3,1.7l-1.2-2c1-0.9,2.2-1.5,3.7-2
			C1030.9,79.1,1032.4,78.9,1034,78.9L1034,78.9z M1033.1,97.2c1.5,0,2.8-0.3,3.9-1c1.1-0.7,1.9-1.7,2.4-3.1v-3.3h-6.3
			c-3.4,0-5.1,1.2-5.1,3.6c0,1.2,0.4,2.1,1.3,2.8C1030.2,96.9,1031.5,97.2,1033.1,97.2z"/>
		<path class="st1" d="M1052,83c0.6-1.3,1.6-2.4,2.8-3.1c1.3-0.7,2.8-1,4.7-1v2.6l-0.7,0c-2.1,0-3.8,0.6-4.9,1.9
			c-1.2,1.3-1.8,3.1-1.8,5.5v10.2h-2.7V79h2.6V83L1052,83L1052,83z"/>
		<path class="st1" d="M1075.7,97.9c-0.5,0.5-1.1,0.8-1.9,1.1c-0.7,0.2-1.5,0.3-2.3,0.3c-1.9,0-3.3-0.5-4.3-1.5
			c-1-1-1.5-2.5-1.5-4.3V81.3h-3.6V79h3.6v-4.4h2.7V79h6.1v2.3h-6.1v12c0,1.2,0.3,2.1,0.9,2.8c0.6,0.6,1.5,0.9,2.6,0.9
			c0.6,0,1.1-0.1,1.6-0.3c0.5-0.2,1-0.4,1.4-0.8L1075.7,97.9L1075.7,97.9z"/>
		<path class="st1" d="M1080.7,79h2.7v20.1h-2.7V79z M1082.1,74.7c-0.6,0-1-0.2-1.4-0.6s-0.6-0.8-0.6-1.4c0-0.5,0.2-1,0.6-1.3
			c0.4-0.4,0.8-0.6,1.4-0.6c0.6,0,1,0.2,1.4,0.6c0.4,0.4,0.6,0.8,0.6,1.3c0,0.6-0.2,1-0.6,1.4S1082.6,74.7,1082.1,74.7z"/>
		<path class="st1" d="M1099.2,99.3c-2,0-3.8-0.4-5.3-1.3c-1.6-0.9-2.8-2.1-3.7-3.6c-0.9-1.6-1.3-3.3-1.3-5.3c0-2,0.4-3.7,1.3-5.3
			c0.9-1.6,2.1-2.8,3.7-3.6c1.6-0.9,3.3-1.3,5.3-1.3c1.7,0,3.3,0.3,4.6,1c1.4,0.7,2.4,1.6,3.2,2.9l-2,1.4c-0.7-1-1.5-1.7-2.5-2.2
			c-1-0.5-2.1-0.8-3.3-0.8c-1.4,0-2.8,0.3-3.9,1c-1.1,0.6-2,1.6-2.7,2.8c-0.6,1.2-0.9,2.6-0.9,4.1c0,1.6,0.3,2.9,0.9,4.1
			c0.7,1.2,1.6,2.1,2.7,2.8c1.2,0.6,2.5,1,3.9,1c1.2,0,2.3-0.2,3.3-0.7c1-0.5,1.8-1.2,2.5-2.2l2,1.4c-0.8,1.3-1.9,2.3-3.2,3
			C1102.4,99,1100.9,99.3,1099.2,99.3L1099.2,99.3z"/>
		<path class="st1" d="M1112,70.8h2.7v28.3h-2.7V70.8z"/>
		<path class="st1" d="M1139.7,89.9h-16.8c0.2,2.1,1,3.8,2.4,5.1c1.4,1.3,3.3,1.9,5.5,1.9c1.2,0,2.4-0.2,3.4-0.6
			c1-0.5,1.9-1.1,2.7-2l1.5,1.8c-0.9,1.1-2,1.9-3.3,2.4c-1.3,0.6-2.8,0.8-4.4,0.8c-2.1,0-3.9-0.4-5.5-1.3c-1.6-0.9-2.8-2.1-3.7-3.7
			c-0.9-1.6-1.3-3.3-1.3-5.3c0-2,0.4-3.7,1.3-5.3c0.9-1.6,2-2.8,3.5-3.6c1.5-0.9,3.2-1.3,5-1.3c1.9,0,3.5,0.4,5,1.3
			c1.5,0.9,2.6,2.1,3.5,3.6c0.8,1.5,1.3,3.3,1.3,5.3L1139.7,89.9z M1130,81.2c-1.9,0-3.6,0.6-4.9,1.9c-1.3,1.2-2,2.8-2.2,4.8h14.2
			c-0.2-2-0.9-3.6-2.3-4.8C1133.6,81.8,1132,81.2,1130,81.2z"/>
		<path class="st1" d="M1160.6,84.5V87l-16.6,6.6v-2.4l14-5.5l-14-5.5v-2.4L1160.6,84.5z"/>
		<path class="st1" d="M734,12.5l-14,5.5l14,5.5V26l-16.6-6.6v-2.5l16.6-6.7V12.5z"/>
		<path class="st1" d="M747.1,5.2c-1.2,0-2.1,0.3-2.7,1c-0.6,0.6-0.9,1.6-0.9,2.8v2.4h6.2v2.3h-6.1v17.8h-2.7V13.6h-3.6v-2.3h3.6
			V8.8c0-1.8,0.5-3.3,1.6-4.4c1.1-1.1,2.6-1.6,4.5-1.6c0.8,0,1.5,0.1,2.2,0.3c0.7,0.2,1.3,0.5,1.8,0.9l-0.9,2
			C749.3,5.5,748.3,5.2,747.1,5.2L747.1,5.2L747.1,5.2z M756.4,11.3h2.7v20.1h-2.7V11.3z M757.8,6.9c-0.6,0-1-0.2-1.4-0.6
			C756,6,755.8,5.5,755.8,5c0-0.5,0.2-1,0.6-1.3c0.4-0.4,0.8-0.6,1.4-0.6s1,0.2,1.4,0.6c0.4,0.4,0.6,0.8,0.6,1.3
			c0,0.6-0.2,1-0.6,1.4C758.8,6.7,758.3,6.9,757.8,6.9L757.8,6.9L757.8,6.9z"/>
		<path class="st1" d="M785.2,11.3V29c0,3.4-0.8,5.9-2.5,7.6c-1.6,1.7-4.1,2.5-7.5,2.5c-1.9,0-3.6-0.3-5.3-0.8c-1.6-0.5-3-1.3-4-2.3
			l1.4-2.1c1,0.9,2.1,1.5,3.5,2c1.4,0.5,2.9,0.7,4.4,0.7c2.5,0,4.4-0.6,5.6-1.8c1.2-1.2,1.8-3,1.8-5.5v-2.6
			c-0.8,1.3-1.9,2.2-3.3,2.9c-1.3,0.7-2.8,1-4.5,1c-1.9,0-3.6-0.4-5.1-1.2c-1.5-0.8-2.7-2-3.6-3.5c-0.9-1.5-1.3-3.2-1.3-5.1
			c0-1.9,0.4-3.6,1.3-5c0.9-1.5,2.1-2.6,3.6-3.4c1.5-0.8,3.2-1.2,5.1-1.2c1.7,0,3.2,0.3,4.6,1c1.4,0.7,2.5,1.7,3.3,3v-3.9
			L785.2,11.3L785.2,11.3L785.2,11.3z M775,28.3c1.4,0,2.8-0.3,3.9-0.9c1.2-0.6,2.1-1.5,2.7-2.6c0.7-1.1,1-2.4,1-3.8s-0.3-2.7-1-3.8
			c-0.6-1.1-1.5-2-2.7-2.6c-1.1-0.6-2.4-1-3.9-1c-1.4,0-2.8,0.3-3.9,0.9c-1.1,0.6-2,1.5-2.7,2.6c-0.6,1.1-1,2.4-1,3.8s0.3,2.7,1,3.8
			c0.7,1.1,1.6,2,2.7,2.6C772.2,27.9,773.5,28.3,775,28.3z"/>
		<path class="st1" d="M810.8,11.3v20.1h-2.6v-3.7c-0.7,1.2-1.7,2.2-2.9,2.9c-1.2,0.7-2.7,1-4.3,1c-2.6,0-4.7-0.7-6.2-2.2
			c-1.5-1.5-2.2-3.6-2.2-6.5V11.3h2.7v11.4c0,2.1,0.5,3.7,1.6,4.8c1,1.1,2.5,1.6,4.4,1.6c2.1,0,3.8-0.6,5-1.9
			c1.2-1.3,1.8-3.1,1.8-5.4V11.3L810.8,11.3L810.8,11.3L810.8,11.3z"/>
		<path class="st1" d="M820.9,15.3c0.6-1.3,1.6-2.4,2.8-3.1c1.3-0.7,2.8-1,4.7-1v2.6l-0.7,0c-2.1,0-3.8,0.6-4.9,1.9
			c-1.2,1.3-1.8,3.1-1.8,5.5v10.2h-2.7V11.3h2.6L820.9,15.3L820.9,15.3L820.9,15.3z"/>
		<path class="st1" d="M850.6,22.2h-16.7c0.2,2.1,1,3.8,2.4,5.1c1.4,1.3,3.3,1.9,5.5,1.9c1.2,0,2.4-0.2,3.4-0.6c1-0.5,1.9-1.1,2.7-2
			l1.5,1.8c-0.9,1.1-2,1.9-3.4,2.4c-1.3,0.6-2.8,0.8-4.4,0.8c-2.1,0-3.9-0.4-5.5-1.3c-1.6-0.9-2.8-2.1-3.7-3.7
			c-0.9-1.6-1.3-3.3-1.3-5.3s0.4-3.7,1.3-5.3c0.9-1.6,2-2.8,3.5-3.6c1.5-0.9,3.2-1.3,5-1.3c1.9,0,3.5,0.4,5,1.3
			c1.5,0.9,2.6,2.1,3.5,3.6c0.8,1.5,1.3,3.3,1.3,5.3L850.6,22.2z M840.9,13.5c-1.9,0-3.6,0.6-4.9,1.9c-1.3,1.2-2,2.8-2.2,4.8H848
			c-0.2-2-0.9-3.6-2.2-4.8C844.5,14.1,842.9,13.5,840.9,13.5L840.9,13.5z"/>
		<path class="st1" d="M871.5,16.8v2.5L855,26v-2.4l14-5.5l-14-5.5v-2.4L871.5,16.8z"/>
		<path class="st1" d="M581.8,113.7l-14,5.5l14,5.5v2.4l-16.6-6.6V118l16.6-6.7V113.7z"/>
		<path class="st1" d="M598.6,112.3c1.9,0,3.6,0.4,5.1,1.3c1.5,0.8,2.7,2,3.6,3.6c0.9,1.6,1.3,3.3,1.3,5.3c0,2-0.4,3.8-1.3,5.3
			c-0.9,1.6-2.1,2.8-3.6,3.6c-1.5,0.8-3.2,1.3-5.1,1.3c-1.6,0-3.1-0.3-4.4-1c-1.3-0.7-2.4-1.7-3.2-3V140h-2.7v-27.5h2.6v4
			c0.8-1.3,1.9-2.3,3.2-3.1C595.4,112.7,596.9,112.3,598.6,112.3z M598.4,130.4c1.4,0,2.7-0.3,3.8-1c1.1-0.7,2-1.6,2.7-2.8
			c0.7-1.2,1-2.6,1-4.1s-0.3-2.9-1-4c-0.6-1.2-1.5-2.1-2.7-2.8c-1.1-0.7-2.4-1-3.8-1c-1.4,0-2.7,0.3-3.8,1c-1.1,0.7-2,1.6-2.7,2.8
			c-0.6,1.2-1,2.5-1,4s0.3,2.9,1,4.1c0.7,1.2,1.5,2.1,2.7,2.8C595.7,130.1,596.9,130.4,598.4,130.4z"/>
		<path class="st1" d="M629.5,118v2.5l-16.6,6.6v-2.4l14-5.5l-14-5.5v-2.4L629.5,118z"/>
		<path class="st1" d="M472,62.6l-10.5,4.2l10.5,4.2v1.8l-12.4-5v-1.9l12.4-5V62.6z"/>
		<path class="st1" d="M482.1,61.6c2,0,3.5,0.5,4.5,1.5c1,1,1.6,2.4,1.6,4.4v9.3h-1.9v-2.3c-0.5,0.8-1.1,1.4-2,1.8
			c-0.9,0.4-1.9,0.7-3.1,0.7c-1.7,0-3-0.4-4-1.2c-1-0.8-1.5-1.9-1.5-3.2c0-1.3,0.5-2.3,1.4-3.1c0.9-0.8,2.4-1.2,4.4-1.2h4.8v-0.9
			c0-1.3-0.4-2.3-1.1-3c-0.7-0.7-1.8-1-3.2-1c-1,0-1.9,0.2-2.7,0.5c-0.9,0.3-1.6,0.7-2.3,1.3l-0.9-1.5c0.8-0.6,1.7-1.1,2.7-1.5
			C479.8,61.8,480.9,61.6,482.1,61.6L482.1,61.6z M481.4,75.3c1.1,0,2.1-0.3,2.9-0.8c0.8-0.5,1.4-1.3,1.8-2.3v-2.5h-4.7
			c-2.6,0-3.9,0.9-3.9,2.7c0,0.9,0.3,1.6,1,2.1C479.3,75.1,480.2,75.3,481.4,75.3L481.4,75.3z"/>
		<path class="st1" d="M497.7,76.9c-1.2,0-2.4-0.2-3.5-0.5c-1.1-0.4-2-0.8-2.6-1.3l0.9-1.6c0.6,0.5,1.4,0.9,2.4,1.2
			c1,0.3,1.9,0.5,3,0.5c1.4,0,2.4-0.2,3-0.6c0.7-0.4,1-1.1,1-1.8c0-0.6-0.2-1-0.5-1.3c-0.4-0.3-0.8-0.6-1.4-0.7
			c-0.6-0.2-1.3-0.3-2.2-0.5c-1.2-0.2-2.2-0.5-2.9-0.7c-0.7-0.2-1.4-0.7-1.9-1.2c-0.5-0.6-0.8-1.4-0.8-2.4c0-1.3,0.5-2.3,1.6-3.1
			c1-0.8,2.5-1.2,4.4-1.2c1,0,1.9,0.1,2.9,0.4c1,0.2,1.8,0.6,2.4,1l-0.9,1.6c-1.2-0.9-2.7-1.3-4.4-1.3c-1.3,0-2.3,0.2-2.9,0.7
			c-0.6,0.5-1,1.1-1,1.8c0,0.6,0.2,1,0.5,1.4c0.4,0.3,0.8,0.6,1.4,0.8c0.6,0.2,1.3,0.3,2.3,0.5c1.2,0.2,2.2,0.5,2.9,0.7
			c0.7,0.2,1.3,0.6,1.9,1.2c0.5,0.6,0.8,1.3,0.8,2.3c0,1.3-0.6,2.4-1.7,3.2C501.2,76.5,499.7,76.9,497.7,76.9z"/>
		<path class="st1" d="M507.7,61.7h2v15.1h-2V61.7z M508.7,58.4c-0.4,0-0.8-0.1-1.1-0.4c-0.3-0.3-0.4-0.6-0.4-1c0-0.4,0.1-0.7,0.4-1
			c0.3-0.3,0.6-0.4,1.1-0.4c0.4,0,0.8,0.1,1.1,0.4c0.3,0.3,0.4,0.6,0.4,1c0,0.4-0.1,0.8-0.4,1.1C509.5,58.3,509.1,58.4,508.7,58.4z"
			/>
		<path class="st1" d="M529,55.5v21.3h-1.9v-3c-0.6,1-1.4,1.8-2.4,2.3c-1,0.5-2.1,0.8-3.4,0.8c-1.4,0-2.7-0.3-3.8-1
			c-1.1-0.6-2-1.6-2.7-2.7s-1-2.5-1-4c0-1.5,0.3-2.8,1-4c0.6-1.2,1.5-2.1,2.7-2.7c1.1-0.6,2.4-1,3.8-1c1.2,0,2.3,0.3,3.3,0.8
			c1,0.5,1.8,1.2,2.4,2.2v-9.1L529,55.5L529,55.5L529,55.5z M521.5,75.1c1,0,2-0.2,2.8-0.7c0.9-0.5,1.5-1.2,2-2.1
			c0.5-0.9,0.7-1.9,0.7-3.1c0-1.1-0.2-2.2-0.7-3.1c-0.5-0.9-1.1-1.6-2-2.1c-0.8-0.5-1.8-0.7-2.8-0.7c-1.1,0-2,0.2-2.9,0.7
			c-0.8,0.5-1.5,1.2-2,2.1c-0.5,0.9-0.7,1.9-0.7,3.1c0,1.1,0.2,2.2,0.7,3.1c0.5,0.9,1.2,1.6,2,2.1C519.4,74.9,520.4,75.1,521.5,75.1
			z"/>
		<path class="st1" d="M547.8,69.9h-12.6c0.1,1.6,0.7,2.8,1.8,3.8c1.1,1,2.5,1.4,4.1,1.4c0.9,0,1.8-0.2,2.6-0.5
			c0.8-0.3,1.5-0.8,2-1.5l1.1,1.3c-0.7,0.8-1.5,1.4-2.5,1.8c-1,0.4-2.1,0.6-3.3,0.6c-1.5,0-2.9-0.3-4.1-1c-1.2-0.7-2.1-1.6-2.8-2.8
			c-0.7-1.2-1-2.5-1-4c0-1.5,0.3-2.8,0.9-4c0.6-1.2,1.5-2.1,2.6-2.7c1.1-0.6,2.4-1,3.8-1s2.6,0.3,3.7,1c1.1,0.6,2,1.6,2.6,2.7
			c0.6,1.1,0.9,2.5,0.9,4L547.8,69.9z M540.5,63.3c-1.4,0-2.7,0.5-3.7,1.4c-1,0.9-1.5,2.1-1.7,3.6h10.6c-0.1-1.5-0.7-2.7-1.7-3.6
			C543.2,63.8,542,63.3,540.5,63.3L540.5,63.3z"/>
		<path class="st1" d="M563.5,65.8v1.9l-12.4,5v-1.8l10.5-4.2l-10.5-4.2v-1.8L563.5,65.8z"/>
		<path class="st1" d="M4.3,46.7c0,0.7-0.1,1.2-0.3,1.6c-0.2,0.3-0.6,0.6-1,0.8c0.5,0.2,0.8,0.4,1,0.8c0.2,0.3,0.3,0.9,0.3,1.6v7.1
			c0,1.5,0.7,2.3,2.2,2.3h0.8v1.7H6.2c-2.6,0-3.9-1.3-3.9-3.8v-7.3c0-1-0.4-1.5-1.3-1.5H0v-1.7h1c0.9,0,1.3-0.5,1.3-1.5v-7.3
			c0-2.5,1.3-3.8,3.9-3.8h1.1v1.7H6.4c-1.4,0-2.2,0.8-2.2,2.3L4.3,46.7z"/>
		<path class="st1" d="M29.4,41.7c1.9,0,3.4,0.5,4.4,1.6c1.1,1.1,1.6,2.7,1.6,4.8v8.7h-2v-8.5c0-1.6-0.4-2.8-1.1-3.6
			c-0.7-0.8-1.8-1.2-3.2-1.2c-1.6,0-2.8,0.5-3.7,1.5c-0.9,1-1.3,2.3-1.3,4v7.9h-2v-8.5c0-1.6-0.4-2.8-1.1-3.6
			c-0.7-0.8-1.8-1.2-3.2-1.2c-1.5,0-2.8,0.5-3.7,1.5c-0.9,1-1.3,2.3-1.3,4v7.9h-2V41.8h1.9v2.8c0.5-0.9,1.3-1.6,2.2-2.1
			c1-0.5,2-0.7,3.3-0.7c1.3,0,2.3,0.3,3.3,0.8c0.9,0.5,1.6,1.3,2.1,2.4c0.6-1,1.3-1.8,2.4-2.3C26.8,42,28,41.7,29.4,41.7L29.4,41.7z
			"/>
		<path class="st1" d="M46.2,41.7c2,0,3.5,0.5,4.5,1.5c1,1,1.6,2.4,1.6,4.4v9.3h-1.9v-2.3c-0.5,0.8-1.1,1.4-2,1.8
			c-0.9,0.4-1.9,0.7-3.1,0.7c-1.7,0-3-0.4-4-1.2c-1-0.8-1.5-1.9-1.5-3.2c0-1.3,0.5-2.3,1.4-3.1c0.9-0.8,2.4-1.2,4.4-1.2h4.8v-0.9
			c0-1.3-0.4-2.3-1.1-3c-0.7-0.7-1.8-1-3.2-1c-1,0-1.9,0.2-2.7,0.5c-0.9,0.3-1.6,0.7-2.3,1.3l-0.9-1.5c0.8-0.6,1.7-1.1,2.7-1.5
			C43.9,41.9,45,41.7,46.2,41.7L46.2,41.7z M45.4,55.4c1.1,0,2.1-0.3,2.9-0.8c0.8-0.5,1.4-1.3,1.8-2.3v-2.5h-4.7
			c-2.6,0-3.9,0.9-3.9,2.7c0,0.9,0.3,1.6,1,2.1C43.3,55.2,44.2,55.4,45.4,55.4z"/>
		<path class="st1" d="M59.7,44.8c0.5-1,1.2-1.8,2.1-2.3c1-0.5,2.1-0.8,3.5-0.8v2l-0.5,0c-1.6,0-2.8,0.5-3.7,1.5
			c-0.9,1-1.3,2.3-1.3,4.1v7.7h-2V41.8h1.9L59.7,44.8L59.7,44.8L59.7,44.8z"/>
		<path class="st1" d="M82.7,41.8v13.2c0,2.6-0.6,4.4-1.9,5.7c-1.2,1.2-3.1,1.9-5.6,1.9c-1.4,0-2.7-0.2-4-0.6c-1.2-0.4-2.2-1-3-1.7
			l1-1.5c0.7,0.6,1.6,1.2,2.6,1.5c1,0.4,2.1,0.5,3.3,0.5c1.9,0,3.3-0.4,4.2-1.3c0.9-0.9,1.3-2.3,1.3-4.1v-1.9
			c-0.6,1-1.5,1.7-2.5,2.2c-1,0.5-2.1,0.7-3.4,0.7c-1.4,0-2.7-0.3-3.9-0.9c-1.1-0.6-2-1.5-2.7-2.6c-0.6-1.1-1-2.4-1-3.8
			c0-1.4,0.3-2.7,1-3.8c0.7-1.1,1.6-2,2.7-2.6c1.1-0.6,2.4-0.9,3.9-0.9c1.3,0,2.4,0.3,3.5,0.8c1,0.5,1.9,1.3,2.5,2.2v-2.9L82.7,41.8
			L82.7,41.8L82.7,41.8z M75.1,54.5c1.1,0,2.1-0.2,2.9-0.7c0.9-0.5,1.6-1.1,2-2c0.5-0.8,0.7-1.8,0.7-2.9s-0.2-2-0.7-2.8
			c-0.5-0.8-1.2-1.5-2-1.9c-0.9-0.5-1.8-0.7-2.9-0.7c-1.1,0-2.1,0.2-2.9,0.7c-0.9,0.5-1.5,1.1-2,1.9c-0.5,0.8-0.7,1.8-0.7,2.9
			s0.2,2,0.7,2.9c0.5,0.8,1.2,1.5,2,2C73,54.3,74,54.5,75.1,54.5z"/>
		<path class="st1" d="M88.4,41.8h2v15.1h-2V41.8z M89.4,38.5c-0.4,0-0.8-0.1-1.1-0.4c-0.3-0.3-0.4-0.6-0.4-1c0-0.4,0.1-0.7,0.4-1
			c0.3-0.3,0.6-0.4,1.1-0.4c0.4,0,0.8,0.1,1.1,0.4c0.3,0.3,0.4,0.6,0.4,1c0,0.4-0.1,0.8-0.4,1.1C90.2,38.4,89.8,38.5,89.4,38.5z"/>
		<path class="st1" d="M103.7,41.7c1.9,0,3.4,0.6,4.5,1.7c1.1,1.1,1.7,2.7,1.7,4.8v8.7h-2v-8.5c0-1.6-0.4-2.8-1.2-3.6
			c-0.8-0.8-1.9-1.2-3.3-1.2c-1.6,0-2.9,0.5-3.9,1.5c-0.9,1-1.4,2.3-1.4,4v7.9h-2V41.8H98v2.8c0.6-0.9,1.3-1.6,2.3-2.1
			C101.3,42,102.4,41.7,103.7,41.7L103.7,41.7z"/>
		<path class="st1" d="M115.6,44.8c-0.4,0-0.8-0.2-1.1-0.5c-0.3-0.3-0.4-0.7-0.4-1.1c0-0.4,0.1-0.8,0.4-1.1c0.3-0.3,0.7-0.5,1.1-0.5
			c0.4,0,0.8,0.2,1.1,0.5c0.3,0.3,0.5,0.6,0.5,1.1c0,0.4-0.2,0.8-0.5,1.1C116.3,44.7,116,44.8,115.6,44.8z M115.6,57
			c-0.4,0-0.8-0.2-1.1-0.5c-0.3-0.3-0.4-0.7-0.4-1.1c0-0.4,0.1-0.8,0.4-1.1c0.3-0.3,0.7-0.5,1.1-0.5c0.4,0,0.8,0.2,1.1,0.5
			c0.3,0.3,0.5,0.6,0.5,1.1c0,0.4-0.2,0.8-0.5,1.1C116.3,56.9,116,57,115.6,57z"/>
		<path class="st1" d="M141.2,55.1v1.8h-14v-1.5l8.3-8.2c1-1,1.8-1.9,2.1-2.7c0.4-0.8,0.6-1.5,0.6-2.3c0-1.2-0.4-2.1-1.2-2.8
			c-0.8-0.7-1.9-1-3.5-1c-2.3,0-4.2,0.7-5.4,2.2l-1.5-1.3c0.8-0.9,1.8-1.6,3-2.1c1.2-0.5,2.6-0.7,4.1-0.7c2,0,3.6,0.5,4.8,1.5
			c1.2,1,1.8,2.3,1.8,4c0,1-0.2,2-0.7,3s-1.3,2.1-2.6,3.3l-6.8,6.7L141.2,55.1L141.2,55.1z"/>
		<path class="st1" d="M151.6,57.1c-1.5,0-2.9-0.4-4.1-1.2c-1.2-0.8-2.1-2-2.8-3.5c-0.7-1.5-1-3.4-1-5.4s0.3-3.9,1-5.4
			c0.7-1.5,1.6-2.7,2.8-3.6c1.2-0.8,2.6-1.2,4.1-1.2c1.5,0,2.9,0.4,4.1,1.2c1.2,0.8,2.2,2,2.9,3.6c0.7,1.5,1,3.3,1,5.4
			s-0.3,3.9-1,5.4c-0.7,1.5-1.6,2.7-2.9,3.5C154.5,56.6,153.2,57.1,151.6,57.1z M151.6,55.2c1.2,0,2.2-0.3,3.1-1
			c0.9-0.6,1.6-1.6,2.1-2.8c0.5-1.2,0.7-2.7,0.7-4.5s-0.2-3.3-0.7-4.5s-1.2-2.2-2.1-2.8c-0.9-0.6-1.9-1-3.1-1c-1.2,0-2.2,0.3-3.1,1
			c-0.9,0.6-1.6,1.6-2.1,2.8c-0.5,1.2-0.7,2.7-0.7,4.5s0.2,3.3,0.7,4.5c0.5,1.2,1.2,2.2,2.1,2.8C149.4,54.8,150.5,55.2,151.6,55.2z"
			/>
		<path class="st1" d="M171.6,41.7c1.4,0,2.7,0.3,3.8,1c1.1,0.6,2,1.5,2.7,2.7c0.6,1.2,1,2.5,1,4c0,1.5-0.3,2.8-1,4
			s-1.5,2.1-2.7,2.7c-1.1,0.6-2.4,0.9-3.8,0.9c-1.2,0-2.3-0.2-3.3-0.7c-1-0.5-1.8-1.3-2.4-2.2v8.4h-2V41.8h1.9v3
			c0.6-1,1.4-1.8,2.4-2.3C169.2,42,170.4,41.7,171.6,41.7L171.6,41.7L171.6,41.7z M171.5,55.2c1,0,2-0.2,2.9-0.7
			c0.9-0.5,1.5-1.2,2-2.1c0.5-0.9,0.7-1.9,0.7-3.1s-0.2-2.2-0.7-3c-0.5-0.9-1.1-1.6-2-2.1c-0.9-0.5-1.8-0.7-2.9-0.7
			c-1.1,0-2,0.2-2.9,0.7c-0.8,0.5-1.5,1.2-2,2.1c-0.5,0.9-0.7,1.9-0.7,3s0.2,2.2,0.7,3.1c0.5,0.9,1.2,1.6,2,2.1
			C169.5,55,170.4,55.2,171.5,55.2z"/>
		<path class="st1" d="M192.3,56.9l-4.8-6.3l-4.8,6.3h-2.3l5.9-7.7l-5.6-7.3h2.3l4.5,5.9l4.5-5.9h2.2l-5.6,7.3l6,7.7L192.3,56.9z"/>
		<path class="st1" d="M197.9,44.8c-0.4,0-0.8-0.2-1.1-0.5c-0.3-0.3-0.4-0.7-0.4-1.1c0-0.4,0.1-0.8,0.4-1.1c0.3-0.3,0.7-0.5,1.1-0.5
			c0.4,0,0.8,0.2,1.1,0.5c0.3,0.3,0.5,0.6,0.5,1.1c0,0.4-0.2,0.8-0.5,1.1C198.6,44.7,198.3,44.8,197.9,44.8z M197.9,53.9
			c0.4,0,0.8,0.2,1.1,0.5c0.3,0.3,0.4,0.6,0.4,1.1c0,0.2,0,0.5-0.1,0.7c-0.1,0.3-0.2,0.6-0.3,0.9l-1.2,4h-1.4l1-4.2
			c-0.3-0.1-0.6-0.3-0.7-0.5c-0.2-0.3-0.3-0.6-0.3-0.9c0-0.4,0.1-0.8,0.4-1.1C197.1,54.1,197.5,53.9,197.9,53.9L197.9,53.9z"/>
		<path class="st1" d="M208.7,48.2v1.7h-1c-0.9,0-1.3,0.5-1.3,1.5v7.3c0,2.5-1.3,3.8-3.9,3.8h-1.1v-1.7h0.8c1.4,0,2.2-0.8,2.2-2.3
			v-7.1c0-0.7,0.1-1.2,0.3-1.6c0.2-0.3,0.6-0.6,1-0.8c-0.5-0.2-0.8-0.4-1-0.8c-0.2-0.3-0.3-0.9-0.3-1.6v-7.1c0-1.5-0.7-2.3-2.2-2.3
			h-0.8v-1.7h1.1c2.6,0,3.9,1.3,3.9,3.8v7.3c0,1,0.4,1.5,1.3,1.5L208.7,48.2z"/>
		<path class="st1" d="M1123.3,14.1l-10.5,4.2l10.5,4.2v1.8l-12.4-5v-1.9l12.4-5V14.1z"/>
		<path class="st1" d="M1141.8,7v21.3h-1.9v-3c-0.6,1-1.4,1.8-2.4,2.3c-1,0.5-2.1,0.8-3.4,0.8c-1.4,0-2.7-0.3-3.8-1
			c-1.1-0.6-2-1.6-2.7-2.7c-0.6-1.2-1-2.5-1-4c0-1.5,0.3-2.8,1-4c0.7-1.2,1.6-2.1,2.7-2.7c1.1-0.6,2.4-1,3.8-1
			c1.2,0,2.3,0.3,3.3,0.8c1,0.5,1.8,1.2,2.4,2.2V7L1141.8,7L1141.8,7L1141.8,7z M1134.2,26.6c1,0,2-0.2,2.8-0.7
			c0.9-0.5,1.5-1.2,2-2.1c0.5-0.9,0.7-1.9,0.7-3.1c0-1.1-0.3-2.2-0.7-3.1c-0.5-0.9-1.1-1.6-2-2.1c-0.8-0.5-1.8-0.7-2.8-0.7
			c-1.1,0-2,0.2-2.9,0.7c-0.8,0.5-1.5,1.2-2,2.1c-0.5,0.9-0.7,1.9-0.7,3.1c0,1.1,0.2,2.2,0.7,3.1c0.5,0.9,1.2,1.6,2,2.1
			C1132.2,26.3,1133.2,26.6,1134.2,26.6z"/>
		<path class="st1" d="M1147.5,13.2h2v15.1h-2V13.2z M1148.5,9.9c-0.4,0-0.8-0.1-1.1-0.4c-0.3-0.3-0.4-0.6-0.4-1
			c0-0.4,0.1-0.7,0.4-1c0.3-0.3,0.6-0.4,1.1-0.4s0.8,0.1,1.1,0.4c0.3,0.3,0.4,0.6,0.4,1c0,0.4-0.1,0.8-0.4,1.1
			C1149.3,9.7,1149,9.9,1148.5,9.9L1148.5,9.9z"/>
		<path class="st1" d="M1167.7,13.2l-6.7,15.1h-2.1l-6.7-15.1h2.1L1160,26l5.7-12.8H1167.7z"/>
		<path class="st1" d="M1182.1,17.3v1.9l-12.4,5v-1.8l10.5-4.2l-10.5-4.2v-1.8L1182.1,17.3z"/>
		<path class="st1" d="M846.9,64.7c0,0.5-0.1,0.9-0.2,1.2c-0.2,0.3-0.4,0.5-0.8,0.6c0.4,0.1,0.6,0.3,0.8,0.6
			c0.2,0.3,0.2,0.7,0.2,1.2v4.2c0,1,0.5,1.5,1.4,1.5h0.5v1.5h-0.8c-1,0-1.7-0.2-2.1-0.7c-0.5-0.5-0.7-1.2-0.7-2.1v-4.4
			c0-0.6-0.3-1-0.9-1h-0.7v-1.5h0.7c0.6,0,0.9-0.3,0.9-1v-4.4c0-0.9,0.2-1.6,0.7-2.1c0.5-0.5,1.2-0.7,2.1-0.7h0.8v1.5h-0.5
			c-0.9,0-1.4,0.5-1.4,1.5V64.7z"/>
		<path class="st1" d="M866.1,61.6l-3.8,10.1h-1.7l-2.9-7.7l-3,7.7H853l-3.8-10.1h1.7l2.9,8.1l3-8.1h1.5l3,8.1l3-8.1L866.1,61.6z"/>
		<path class="st1" d="M868,61.6h1.8v10.1H868V61.6z M868.9,59.7c-0.3,0-0.7-0.1-0.9-0.3c-0.2-0.2-0.3-0.5-0.3-0.8s0.1-0.6,0.3-0.8
			c0.2-0.2,0.5-0.4,0.9-0.4c0.4,0,0.7,0.1,0.9,0.3c0.2,0.2,0.4,0.5,0.4,0.8c0,0.3-0.1,0.6-0.4,0.9C869.5,59.5,869.2,59.7,868.9,59.7
			z"/>
		<path class="st1" d="M882.8,57.6v14.2H881v-1.6c-0.4,0.6-0.9,1-1.5,1.3c-0.6,0.3-1.3,0.4-2.1,0.4c-1,0-1.9-0.2-2.6-0.6
			c-0.8-0.4-1.4-1-1.8-1.8c-0.4-0.8-0.7-1.7-0.7-2.7c0-1,0.2-1.9,0.7-2.7c0.4-0.8,1-1.4,1.8-1.8c0.8-0.4,1.6-0.6,2.6-0.6
			c0.7,0,1.4,0.1,2,0.4c0.6,0.3,1.1,0.7,1.5,1.2v-5.6L882.8,57.6L882.8,57.6z M877.6,70.2c0.6,0,1.2-0.1,1.7-0.4
			c0.5-0.3,0.9-0.7,1.2-1.3c0.3-0.5,0.4-1.2,0.4-1.9c0-0.7-0.1-1.3-0.4-1.9c-0.3-0.5-0.7-1-1.2-1.3c-0.5-0.3-1.1-0.4-1.7-0.4
			c-0.6,0-1.2,0.1-1.8,0.4c-0.5,0.3-0.9,0.7-1.2,1.3c-0.3,0.5-0.4,1.2-0.4,1.9c0,0.7,0.1,1.3,0.4,1.9c0.3,0.5,0.7,1,1.2,1.3
			C876.4,70.1,876.9,70.2,877.6,70.2z"/>
		<path class="st1" d="M892.1,71.1c-0.3,0.2-0.6,0.4-1,0.5c-0.4,0.1-0.8,0.2-1.2,0.2c-1,0-1.8-0.3-2.4-0.8s-0.8-1.3-0.8-2.3v-5.6
			H885v-1.5h1.7v-2.2h1.8v2.2h2.9v1.5h-2.9v5.5c0,0.5,0.1,1,0.4,1.3c0.3,0.3,0.7,0.4,1.2,0.4c0.6,0,1-0.2,1.4-0.5L892.1,71.1z"/>
		<path class="st1" d="M899.7,61.5c1.3,0,2.3,0.4,3,1.1c0.8,0.7,1.1,1.8,1.1,3.3v5.8h-1.8v-5.6c0-1-0.2-1.7-0.7-2.2
			c-0.5-0.5-1.1-0.7-2-0.7c-1,0-1.8,0.3-2.3,0.9c-0.6,0.6-0.9,1.4-0.9,2.5v5.2h-1.8V57.6h1.8V63c0.4-0.5,0.9-0.9,1.5-1.1
			C898.3,61.6,899,61.5,899.7,61.5L899.7,61.5z"/>
		<path class="st1" d="M907.8,64.1c-0.4,0-0.7-0.1-0.9-0.4c-0.3-0.3-0.4-0.6-0.4-1c0-0.4,0.1-0.7,0.4-0.9c0.3-0.3,0.6-0.4,0.9-0.4
			s0.7,0.1,0.9,0.4c0.2,0.2,0.4,0.6,0.4,0.9s-0.1,0.7-0.4,1C908.4,64,908.1,64.1,907.8,64.1z M907.8,71.8c-0.4,0-0.7-0.1-0.9-0.4
			c-0.3-0.3-0.4-0.6-0.4-1c0-0.4,0.1-0.7,0.4-0.9c0.3-0.3,0.6-0.4,0.9-0.4s0.7,0.1,0.9,0.4c0.2,0.2,0.4,0.6,0.4,0.9
			c0,0.4-0.1,0.7-0.4,1C908.4,71.7,908.1,71.8,907.8,71.8z"/>
		<path class="st1" d="M920,58.4v13.4h-1.9V60h-3v-1.7L920,58.4L920,58.4L920,58.4z"/>
		<path class="st1" d="M928.4,71.9c-1.1,0-2-0.3-2.8-0.8c-0.8-0.5-1.5-1.3-1.9-2.4c-0.5-1-0.7-2.3-0.7-3.7c0-1.4,0.2-2.6,0.7-3.7
			c0.5-1,1.1-1.8,1.9-2.3c0.8-0.5,1.8-0.8,2.8-0.8c1,0,2,0.3,2.8,0.8c0.8,0.5,1.5,1.3,1.9,2.3c0.5,1,0.7,2.3,0.7,3.7
			c0,1.4-0.2,2.6-0.7,3.7c-0.5,1-1.1,1.8-1.9,2.4C930.3,71.6,929.4,71.9,928.4,71.9z M928.4,70.2c1.1,0,1.9-0.4,2.6-1.3
			c0.6-0.9,1-2.2,1-3.8s-0.3-2.9-1-3.8c-0.6-0.9-1.5-1.3-2.6-1.3c-1.1,0-1.9,0.4-2.6,1.3c-0.6,0.9-1,2.2-1,3.8s0.3,2.9,1,3.8
			C926.4,69.7,927.3,70.2,928.4,70.2z"/>
		<path class="st1" d="M941.8,61.5c1,0,1.9,0.2,2.6,0.6c0.8,0.4,1.4,1,1.8,1.8c0.4,0.8,0.7,1.7,0.7,2.7c0,1-0.2,1.9-0.7,2.7
			c-0.4,0.8-1,1.4-1.8,1.8c-0.8,0.4-1.6,0.6-2.6,0.6c-0.7,0-1.4-0.1-2-0.4c-0.6-0.3-1.1-0.7-1.5-1.2v5.2h-1.8V61.6h1.7v1.6
			c0.4-0.6,0.9-1,1.5-1.3C940.4,61.7,941.1,61.5,941.8,61.5L941.8,61.5L941.8,61.5z M941.7,70.2c0.6,0,1.2-0.1,1.7-0.4
			c0.5-0.3,0.9-0.7,1.2-1.3c0.3-0.5,0.5-1.2,0.5-1.9c0-0.7-0.2-1.3-0.5-1.9c-0.3-0.5-0.7-1-1.2-1.3c-0.5-0.3-1.1-0.4-1.7-0.4
			c-0.6,0-1.2,0.2-1.7,0.5c-0.5,0.3-0.9,0.7-1.2,1.2c-0.3,0.5-0.4,1.2-0.4,1.9c0,0.7,0.1,1.3,0.4,1.9c0.3,0.5,0.7,1,1.2,1.3
			C940.5,70.1,941.1,70.2,941.7,70.2z"/>
		<path class="st1" d="M955.5,71.7l-2.9-3.9l-2.9,3.9h-2l4-5.2l-3.8-4.9h2l2.8,3.6l2.8-3.6h2l-3.8,4.9l4,5.2H955.5z"/>
		<path class="st1" d="M959.8,64.1c-0.4,0-0.7-0.1-0.9-0.4c-0.3-0.3-0.4-0.6-0.4-1c0-0.4,0.1-0.7,0.4-0.9c0.3-0.3,0.6-0.4,0.9-0.4
			s0.7,0.1,0.9,0.4c0.2,0.2,0.4,0.6,0.4,0.9s-0.1,0.7-0.4,1C960.5,64,960.2,64.1,959.8,64.1z M959.9,69.2c0.3,0,0.6,0.1,0.9,0.4
			c0.2,0.2,0.4,0.5,0.4,0.9c0,0.2,0,0.4-0.1,0.6c0,0.2-0.1,0.5-0.2,0.8l-0.9,2.7h-1.2l0.7-2.8c-0.2-0.1-0.4-0.2-0.6-0.4
			c-0.1-0.2-0.2-0.5-0.2-0.7c0-0.4,0.1-0.7,0.4-0.9C959.2,69.3,959.5,69.2,959.9,69.2z"/>
		<path class="st1" d="M967.5,65.7v1.5h-0.6c-0.6,0-0.8,0.3-0.8,1v4.4c0,0.9-0.2,1.6-0.7,2.1c-0.5,0.5-1.2,0.7-2.2,0.7h-0.8v-1.5
			h0.5c1,0,1.5-0.5,1.5-1.5v-4.2c0-0.5,0.1-0.9,0.2-1.2c0.2-0.3,0.4-0.5,0.8-0.6c-0.4-0.1-0.6-0.3-0.8-0.6c-0.2-0.3-0.2-0.7-0.2-1.2
			v-4.2c0-1-0.5-1.5-1.5-1.5h-0.5v-1.5h0.8c1,0,1.7,0.2,2.2,0.7c0.5,0.5,0.7,1.2,0.7,2.1v4.4c0,0.6,0.3,1,0.8,1L967.5,65.7z"/>
		<path class="st1" d="M988.1,112.7l-10.5,4.2l10.5,4.2v1.8l-12.4-5v-1.9l12.4-5V112.7z"/>
		<path class="st1" d="M1000.6,111.7c1.9,0,3.4,0.6,4.5,1.7c1.1,1.1,1.7,2.7,1.7,4.8v8.7h-2v-8.5c0-1.6-0.4-2.8-1.2-3.6
			c-0.8-0.8-1.9-1.2-3.3-1.2c-1.6,0-2.9,0.5-3.9,1.5c-0.9,1-1.4,2.3-1.4,4v7.9h-2v-21.3h2v8.8c0.5-0.9,1.3-1.6,2.3-2
			C998.2,112,999.3,111.7,1000.6,111.7L1000.6,111.7z"/>
		<path class="st1" d="M1024.4,125.1v1.8h-14v-1.5l8.3-8.2c1-1,1.8-1.9,2.1-2.7c0.4-0.8,0.6-1.5,0.6-2.3c0-1.2-0.4-2.1-1.2-2.7
			c-0.8-0.7-2-1-3.5-1c-2.3,0-4.2,0.7-5.4,2.2l-1.5-1.3c0.8-0.9,1.8-1.6,3-2.1c1.2-0.5,2.6-0.7,4.1-0.7c2,0,3.6,0.5,4.8,1.5
			c1.2,1,1.8,2.3,1.8,4c0,1-0.2,2-0.7,3s-1.3,2.1-2.6,3.3l-6.8,6.7H1024.4z"/>
		<path class="st1" d="M1039.9,115.9v1.9l-12.4,5V121l10.5-4.2l-10.5-4.2v-1.8L1039.9,115.9z"/>
		<path class="st1" d="M721.8,116.8c0,0.7-0.1,1.2-0.3,1.6c-0.2,0.3-0.6,0.6-1,0.8c0.5,0.2,0.8,0.4,1,0.8c0.2,0.3,0.3,0.9,0.3,1.6
			v7.1c0,1.5,0.7,2.3,2.2,2.3h0.8v1.7h-1.1c-2.6,0-3.9-1.3-3.9-3.8v-7.3c0-1-0.4-1.5-1.3-1.5h-1v-1.7h1c0.9,0,1.3-0.5,1.3-1.5v-7.3
			c0-2.5,1.3-3.8,3.9-3.8h1.1v1.7h-0.8c-1.4,0-2.2,0.8-2.2,2.3V116.8z"/>
		<path class="st1" d="M741.8,105.7V127h-1.9v-3c-0.6,1-1.4,1.8-2.4,2.3c-1,0.5-2.1,0.8-3.4,0.8c-1.4,0-2.7-0.3-3.8-1
			c-1.1-0.6-2-1.6-2.7-2.7s-1-2.5-1-4s0.3-2.8,1-4s1.5-2.1,2.7-2.7c1.1-0.7,2.4-1,3.8-1c1.2,0,2.3,0.3,3.3,0.8
			c1,0.5,1.8,1.2,2.4,2.2v-9.1L741.8,105.7z M734.3,125.3c1,0,2-0.2,2.8-0.7c0.9-0.5,1.5-1.2,2-2.1c0.5-0.9,0.7-1.9,0.7-3.1
			s-0.2-2.2-0.7-3.1c-0.5-0.9-1.1-1.6-2-2.1c-0.8-0.5-1.8-0.7-2.8-0.7c-1.1,0-2,0.2-2.9,0.7c-0.8,0.5-1.5,1.2-2,2.1
			c-0.5,0.9-0.7,1.9-0.7,3.1s0.2,2.2,0.7,3.1c0.5,0.9,1.2,1.6,2,2.1C732.2,125.1,733.2,125.3,734.3,125.3z"/>
		<path class="st1" d="M747.5,111.9h2V127h-2V111.9z M748.5,108.6c-0.4,0-0.8-0.1-1.1-0.4c-0.3-0.3-0.4-0.6-0.4-1
			c0-0.4,0.1-0.7,0.4-1c0.3-0.3,0.6-0.4,1.1-0.4c0.4,0,0.8,0.1,1.1,0.4c0.3,0.3,0.4,0.6,0.4,1c0,0.4-0.1,0.8-0.4,1.1
			C749.3,108.5,748.9,108.6,748.5,108.6z"/>
		<path class="st1" d="M759.2,127.1c-1.2,0-2.4-0.2-3.5-0.5c-1.1-0.4-2-0.8-2.6-1.3l0.9-1.6c0.6,0.5,1.4,0.9,2.4,1.2
			c1,0.3,1.9,0.5,3,0.5c1.4,0,2.4-0.2,3-0.6c0.7-0.4,1-1.1,1-1.8c0-0.6-0.2-1-0.5-1.3c-0.4-0.3-0.8-0.6-1.4-0.7
			c-0.6-0.2-1.3-0.3-2.2-0.5c-1.2-0.2-2.2-0.5-2.9-0.7c-0.7-0.2-1.4-0.7-1.9-1.2c-0.5-0.6-0.8-1.4-0.8-2.4c0-1.3,0.5-2.3,1.6-3.1
			c1-0.8,2.5-1.2,4.4-1.2c1,0,1.9,0.1,2.9,0.4c1,0.2,1.8,0.6,2.4,1l-0.9,1.6c-1.2-0.9-2.7-1.3-4.4-1.3c-1.3,0-2.3,0.2-2.9,0.7
			c-0.6,0.5-1,1.1-1,1.8c0,0.6,0.2,1,0.5,1.4c0.4,0.3,0.8,0.6,1.4,0.8c0.6,0.2,1.3,0.3,2.3,0.5c1.2,0.2,2.2,0.5,2.9,0.7
			s1.3,0.6,1.9,1.2c0.5,0.6,0.8,1.3,0.8,2.3c0,1.3-0.6,2.4-1.7,3.2C762.6,126.7,761.1,127.1,759.2,127.1L759.2,127.1z"/>
		<path class="st1" d="M776.8,111.8c1.4,0,2.7,0.3,3.8,1c1.1,0.6,2,1.5,2.7,2.7c0.6,1.2,1,2.5,1,4c0,1.5-0.3,2.8-1,4
			c-0.6,1.2-1.5,2.1-2.7,2.7c-1.1,0.6-2.4,0.9-3.8,0.9c-1.2,0-2.3-0.2-3.3-0.7c-1-0.5-1.8-1.3-2.4-2.2v8.4h-2v-20.6h1.9v3
			c0.6-1,1.4-1.8,2.4-2.3C774.4,112,775.6,111.8,776.8,111.8z M776.7,125.3c1,0,2-0.2,2.9-0.7c0.9-0.5,1.5-1.2,2-2.1
			c0.5-0.9,0.7-1.9,0.7-3.1s-0.2-2.2-0.7-3c-0.5-0.9-1.1-1.6-2-2.1c-0.9-0.5-1.8-0.7-2.9-0.7c-1.1,0-2,0.2-2.9,0.7
			c-0.8,0.5-1.5,1.2-2,2.1c-0.5,0.9-0.7,1.9-0.7,3s0.2,2.2,0.7,3.1c0.5,0.9,1.2,1.6,2,2.1C774.7,125.1,775.6,125.3,776.7,125.3z"/>
		<path class="st1" d="M788.4,105.7h2V127h-2V105.7z"/>
		<path class="st1" d="M801.4,111.8c2,0,3.5,0.5,4.5,1.5c1,1,1.6,2.4,1.6,4.4v9.3h-1.9v-2.3c-0.5,0.8-1.1,1.4-2,1.8
			c-0.9,0.4-1.9,0.7-3.1,0.7c-1.7,0-3-0.4-4-1.2c-1-0.8-1.5-1.9-1.5-3.2c0-1.3,0.5-2.3,1.4-3.1c0.9-0.8,2.4-1.2,4.4-1.2h4.8v-0.9
			c0-1.3-0.4-2.3-1.1-2.9c-0.7-0.7-1.8-1-3.2-1c-1,0-1.9,0.2-2.7,0.5c-0.9,0.3-1.6,0.7-2.3,1.3l-0.9-1.5c0.8-0.6,1.7-1.1,2.7-1.5
			C799.1,112,800.2,111.8,801.4,111.8z M800.6,125.5c1.1,0,2.1-0.3,2.9-0.8c0.8-0.5,1.4-1.3,1.8-2.3V120h-4.7
			c-2.6,0-3.9,0.9-3.9,2.7c0,0.9,0.3,1.6,1,2.1C798.5,125.3,799.4,125.5,800.6,125.5z"/>
		<path class="st1" d="M825.3,111.9l-7.5,16.9c-0.6,1.4-1.3,2.4-2.1,3c-0.8,0.6-1.8,0.9-2.9,0.9c-0.7,0-1.4-0.1-2-0.3
			s-1.2-0.6-1.6-1l0.9-1.5c0.8,0.8,1.7,1.1,2.7,1.1c0.7,0,1.3-0.2,1.7-0.6c0.5-0.4,1-1,1.4-1.9l0.7-1.5l-6.7-15h2.1l5.7,12.8
			l5.6-12.8L825.3,111.9z"/>
		<path class="st1" d="M828.5,114.9c-0.4,0-0.8-0.2-1.1-0.5c-0.3-0.3-0.4-0.7-0.4-1.1s0.1-0.8,0.4-1.1c0.3-0.3,0.7-0.5,1.1-0.5
			c0.4,0,0.8,0.2,1.1,0.5c0.3,0.3,0.5,0.6,0.5,1.1s-0.2,0.8-0.5,1.1C829.3,114.8,829,114.9,828.5,114.9z M828.5,127.1
			c-0.4,0-0.8-0.2-1.1-0.5c-0.3-0.3-0.4-0.7-0.4-1.1s0.1-0.8,0.4-1.1c0.3-0.3,0.7-0.5,1.1-0.5c0.4,0,0.8,0.2,1.1,0.5
			c0.3,0.3,0.5,0.7,0.5,1.1s-0.2,0.8-0.5,1.1C829.3,127,829,127.1,828.5,127.1z"/>
		<path class="st1" d="M849.6,111.8c1.4,0,2.7,0.3,3.8,1c1.1,0.6,2,1.5,2.7,2.7c0.7,1.2,1,2.5,1,4s-0.3,2.8-1,4
			c-0.6,1.2-1.5,2.1-2.7,2.7c-1.1,0.6-2.4,1-3.8,1c-1.3,0-2.4-0.3-3.4-0.8c-1-0.5-1.8-1.3-2.4-2.3v3h-1.9v-21.3h2v9.1
			c0.6-1,1.4-1.7,2.4-2.2C847.2,112,848.3,111.8,849.6,111.8L849.6,111.8z M849.4,125.3c1,0,2-0.2,2.9-0.7c0.9-0.5,1.5-1.2,2-2.1
			c0.5-0.9,0.7-1.9,0.7-3.1s-0.2-2.2-0.7-3.1c-0.5-0.9-1.1-1.6-2-2.1c-0.9-0.5-1.8-0.7-2.9-0.7c-1.1,0-2,0.2-2.9,0.7
			c-0.8,0.5-1.5,1.2-2,2.1c-0.5,0.9-0.7,1.9-0.7,3.1s0.2,2.2,0.7,3.1c0.5,0.9,1.2,1.6,2,2.1C847.4,125.1,848.3,125.3,849.4,125.3z"
			/>
		<path class="st1" d="M861.2,105.7h2V127h-2V105.7z"/>
		<path class="st1" d="M875,127.1c-1.4,0-2.7-0.3-3.9-1c-1.2-0.7-2.1-1.6-2.7-2.8c-0.7-1.2-1-2.5-1-4s0.3-2.8,1-4
			c0.7-1.2,1.6-2.1,2.7-2.7c1.2-0.7,2.5-1,3.9-1c1.5,0,2.8,0.3,3.9,1c1.2,0.6,2.1,1.6,2.7,2.7c0.7,1.2,1,2.5,1,4s-0.3,2.8-1,4
			c-0.7,1.2-1.6,2.1-2.7,2.8C877.8,126.8,876.5,127.1,875,127.1z M875,125.3c1.1,0,2-0.2,2.9-0.7c0.9-0.5,1.5-1.2,2-2.1
			c0.5-0.9,0.7-1.9,0.7-3.1s-0.2-2.2-0.7-3.1s-1.1-1.6-2-2.1c-0.8-0.5-1.8-0.7-2.9-0.7c-1.1,0-2,0.2-2.9,0.7c-0.8,0.5-1.5,1.2-2,2.1
			c-0.5,0.9-0.7,1.9-0.7,3.1s0.2,2.2,0.7,3.1c0.5,0.9,1.2,1.6,2,2.1C873,125.1,873.9,125.3,875,125.3z"/>
		<path class="st1" d="M893,127.1c-1.5,0-2.8-0.3-4-1c-1.2-0.7-2.1-1.6-2.7-2.7c-0.7-1.2-1-2.5-1-4s0.3-2.8,1-4
			c0.7-1.2,1.6-2.1,2.7-2.7c1.2-0.7,2.5-1,4-1c1.3,0,2.4,0.3,3.5,0.8c1,0.5,1.8,1.2,2.4,2.2l-1.5,1c-0.5-0.7-1.1-1.3-1.9-1.7
			c-0.8-0.4-1.6-0.6-2.5-0.6c-1.1,0-2.1,0.2-2.9,0.7c-0.9,0.5-1.5,1.2-2,2.1c-0.5,0.9-0.7,1.9-0.7,3.1c0,1.2,0.2,2.2,0.7,3.1
			c0.5,0.9,1.2,1.6,2,2.1c0.9,0.5,1.9,0.7,2.9,0.7c0.9,0,1.7-0.2,2.5-0.5c0.8-0.4,1.4-0.9,1.9-1.7l1.5,1c-0.6,1-1.4,1.7-2.4,2.2
			C895.4,126.9,894.3,127.1,893,127.1z"/>
		<path class="st1" d="M908.1,119.4l-3.5,3.3v4.3h-2v-21.3h2v14.4l9-8.2h2.5l-6.4,6.2l7,8.9h-2.5L908.1,119.4z"/>
		<path class="st1" d="M920,114.9c-0.4,0-0.8-0.2-1.1-0.5c-0.3-0.3-0.4-0.7-0.4-1.1s0.1-0.8,0.4-1.1c0.3-0.3,0.7-0.5,1.1-0.5
			c0.4,0,0.8,0.2,1.1,0.5c0.3,0.3,0.5,0.6,0.5,1.1s-0.2,0.8-0.5,1.1C920.7,114.8,920.4,114.9,920,114.9z M920,124
			c0.4,0,0.8,0.2,1.1,0.5c0.3,0.3,0.4,0.7,0.4,1.1c0,0.2,0,0.5-0.1,0.7c-0.1,0.3-0.2,0.6-0.3,0.9l-1.2,4h-1.4l1-4.2
			c-0.3-0.1-0.6-0.3-0.7-0.5c-0.2-0.3-0.3-0.6-0.3-0.9c0-0.4,0.1-0.8,0.4-1.1C919.2,124.1,919.5,124,920,124L920,124z"/>
		<path class="st1" d="M930.8,118.3v1.7h-1c-0.9,0-1.3,0.5-1.3,1.5v7.3c0,2.5-1.3,3.8-3.9,3.8h-1.1v-1.7h0.8c1.4,0,2.2-0.8,2.2-2.3
			v-7.1c0-0.7,0.1-1.2,0.3-1.6c0.2-0.3,0.5-0.6,1-0.8c-0.5-0.2-0.8-0.4-1-0.8c-0.2-0.3-0.3-0.9-0.3-1.6v-7.1c0-1.5-0.7-2.3-2.2-2.3
			h-0.8v-1.7h1.1c2.6,0,3.9,1.3,3.9,3.8v7.3c0,1,0.4,1.5,1.3,1.5L930.8,118.3z"/>
		<path class="st1" d="M203.5,79.9c0,0.5-0.1,0.9-0.2,1.2s-0.4,0.5-0.8,0.6c0.4,0.1,0.6,0.3,0.8,0.6c0.2,0.3,0.2,0.7,0.2,1.2v4.2
			c0,1,0.5,1.5,1.4,1.5h0.5v1.5h-0.8c-1,0-1.7-0.2-2.1-0.7c-0.5-0.5-0.7-1.2-0.7-2.1v-4.4c0-0.6-0.3-1-0.9-1h-0.7v-1.5h0.7
			c0.6,0,0.9-0.3,0.9-1v-4.4c0-0.9,0.2-1.6,0.7-2.1c0.5-0.5,1.2-0.7,2.1-0.7h0.8v1.5h-0.5c-0.9,0-1.4,0.5-1.4,1.5V79.9z"/>
		<path class="st1" d="M212.8,76.6c1,0,1.9,0.2,2.6,0.6c0.8,0.4,1.4,1,1.8,1.8c0.4,0.8,0.7,1.7,0.7,2.7c0,1-0.2,1.9-0.7,2.7
			c-0.4,0.8-1,1.4-1.8,1.8c-0.8,0.4-1.6,0.6-2.6,0.6c-0.7,0-1.4-0.1-2-0.4c-0.6-0.3-1.1-0.7-1.5-1.2v5.2h-1.8V76.7h1.8v1.6
			c0.4-0.6,0.9-1,1.5-1.3C211.4,76.8,212.1,76.6,212.8,76.6L212.8,76.6z M212.7,85.4c0.6,0,1.2-0.1,1.7-0.4c0.5-0.3,0.9-0.7,1.2-1.3
			c0.3-0.5,0.5-1.2,0.5-1.9c0-0.7-0.2-1.3-0.5-1.9c-0.3-0.5-0.7-1-1.2-1.3c-0.5-0.3-1.1-0.4-1.7-0.4c-0.6,0-1.2,0.2-1.7,0.5
			c-0.5,0.3-0.9,0.7-1.2,1.2c-0.3,0.5-0.4,1.2-0.4,1.9c0,0.7,0.1,1.3,0.4,1.9c0.3,0.5,0.7,1,1.2,1.3C211.5,85.2,212,85.4,212.7,85.4
			z"/>
		<path class="st1" d="M224.8,87c-1,0-1.9-0.2-2.7-0.7c-0.8-0.4-1.4-1.1-1.9-1.8c-0.4-0.8-0.7-1.7-0.7-2.7c0-1,0.2-1.9,0.7-2.7
			c0.5-0.8,1.1-1.4,1.9-1.8c0.8-0.4,1.7-0.7,2.7-0.7s1.9,0.2,2.7,0.7c0.8,0.4,1.4,1,1.9,1.8c0.5,0.8,0.7,1.7,0.7,2.7
			c0,1-0.2,1.9-0.7,2.7c-0.4,0.8-1.1,1.4-1.9,1.8C226.7,86.7,225.8,87,224.8,87z M224.8,85.4c0.6,0,1.2-0.1,1.7-0.4
			c0.5-0.3,0.9-0.7,1.2-1.3c0.3-0.5,0.4-1.2,0.4-1.9c0-0.7-0.1-1.3-0.4-1.9c-0.3-0.5-0.7-1-1.2-1.3c-0.5-0.3-1.1-0.4-1.7-0.4
			s-1.2,0.1-1.8,0.4c-0.5,0.3-0.9,0.7-1.2,1.3c-0.3,0.5-0.4,1.2-0.4,1.9c0,0.7,0.1,1.3,0.4,1.9c0.3,0.5,0.7,1,1.2,1.3
			C223.6,85.2,224.1,85.4,224.8,85.4z"/>
		<path class="st1" d="M235.4,87c-0.8,0-1.6-0.1-2.4-0.3c-0.8-0.2-1.4-0.5-1.8-0.9l0.8-1.5c0.4,0.3,1,0.6,1.6,0.8s1.3,0.3,1.9,0.3
			c1.6,0,2.4-0.5,2.4-1.4c0-0.3-0.1-0.5-0.3-0.7s-0.5-0.3-0.8-0.4c-0.3-0.1-0.8-0.2-1.4-0.3c-0.8-0.1-1.5-0.3-2-0.4
			c-0.5-0.2-0.9-0.4-1.3-0.8s-0.6-0.9-0.6-1.7c0-0.9,0.4-1.6,1.1-2.2c0.8-0.6,1.8-0.8,3.1-0.8c0.7,0,1.3,0.1,2,0.2
			c0.7,0.2,1.2,0.4,1.7,0.7l-0.8,1.5c-0.8-0.5-1.8-0.8-2.9-0.8c-0.8,0-1.4,0.1-1.8,0.4c-0.4,0.3-0.6,0.6-0.6,1
			c0,0.3,0.1,0.6,0.3,0.8c0.2,0.2,0.5,0.3,0.8,0.4c0.3,0.1,0.8,0.2,1.4,0.3c0.8,0.1,1.5,0.3,2,0.5c0.5,0.2,0.9,0.4,1.3,0.8
			c0.4,0.4,0.5,0.9,0.5,1.6c0,0.9-0.4,1.6-1.2,2.2C237.8,86.7,236.8,87,235.4,87L235.4,87z"/>
		<path class="st1" d="M242.1,76.7h1.8v10.1h-1.8V76.7z M243,74.8c-0.4,0-0.7-0.1-0.9-0.3c-0.2-0.2-0.3-0.5-0.3-0.8s0.1-0.6,0.3-0.8
			c0.2-0.2,0.5-0.4,0.9-0.4c0.4,0,0.6,0.1,0.9,0.3c0.2,0.2,0.4,0.5,0.4,0.8c0,0.3-0.1,0.6-0.4,0.9C243.6,74.7,243.3,74.8,243,74.8z"
			/>
		<path class="st1" d="M253.1,86.3c-0.3,0.2-0.6,0.4-1,0.5c-0.4,0.1-0.8,0.2-1.2,0.2c-1,0-1.8-0.3-2.4-0.8c-0.6-0.5-0.8-1.3-0.8-2.3
			v-5.6h-1.7v-1.5h1.7v-2.2h1.8v2.2h2.9v1.5h-2.9v5.5c0,0.5,0.1,1,0.4,1.3c0.3,0.3,0.7,0.4,1.2,0.4c0.6,0,1-0.2,1.4-0.5L253.1,86.3z
			"/>
		<path class="st1" d="M255.3,76.7h1.8v10.1h-1.8V76.7z M256.2,74.8c-0.4,0-0.7-0.1-0.9-0.3c-0.2-0.2-0.3-0.5-0.3-0.8
			s0.1-0.6,0.3-0.8c0.2-0.2,0.5-0.4,0.9-0.4c0.4,0,0.6,0.1,0.9,0.3c0.2,0.2,0.4,0.5,0.4,0.8c0,0.3-0.1,0.6-0.4,0.9
			C256.8,74.7,256.5,74.8,256.2,74.8z"/>
		<path class="st1" d="M264.9,87c-1,0-1.9-0.2-2.7-0.7c-0.8-0.4-1.4-1.1-1.9-1.8c-0.4-0.8-0.7-1.7-0.7-2.7c0-1,0.2-1.9,0.7-2.7
			c0.5-0.8,1.1-1.4,1.9-1.8c0.8-0.4,1.7-0.7,2.7-0.7s1.9,0.2,2.7,0.7c0.8,0.4,1.4,1,1.9,1.8c0.5,0.8,0.7,1.7,0.7,2.7
			c0,1-0.2,1.9-0.7,2.7c-0.4,0.8-1.1,1.4-1.9,1.8C266.8,86.7,265.9,87,264.9,87z M264.9,85.4c0.6,0,1.2-0.1,1.7-0.4
			c0.5-0.3,0.9-0.7,1.2-1.3c0.3-0.5,0.4-1.2,0.4-1.9c0-0.7-0.1-1.3-0.4-1.9c-0.3-0.5-0.7-1-1.2-1.3c-0.5-0.3-1.1-0.4-1.7-0.4
			s-1.2,0.1-1.8,0.4c-0.5,0.3-0.9,0.7-1.2,1.3c-0.3,0.5-0.4,1.2-0.4,1.9c0,0.7,0.1,1.3,0.4,1.9c0.3,0.5,0.7,1,1.2,1.3
			C263.7,85.2,264.2,85.4,264.9,85.4z"/>
		<path class="st1" d="M278,76.6c1.3,0,2.3,0.4,3,1.1c0.8,0.7,1.1,1.8,1.1,3.3v5.8h-1.8v-5.6c0-1-0.2-1.7-0.7-2.2
			c-0.5-0.5-1.1-0.7-2-0.7c-1,0-1.8,0.3-2.3,0.9c-0.6,0.6-0.9,1.4-0.9,2.5v5.2h-1.8V76.7h1.8v1.5c0.4-0.5,0.9-0.9,1.5-1.2
			C276.5,76.8,277.2,76.6,278,76.6L278,76.6z"/>
		<path class="st1" d="M286,79.2c-0.4,0-0.7-0.1-0.9-0.4c-0.3-0.3-0.4-0.6-0.4-1c0-0.4,0.1-0.7,0.4-0.9c0.3-0.3,0.6-0.4,0.9-0.4
			c0.4,0,0.7,0.1,0.9,0.4c0.2,0.2,0.4,0.6,0.4,0.9c0,0.4-0.1,0.7-0.4,1C286.7,79.1,286.4,79.2,286,79.2z M286,87
			c-0.4,0-0.7-0.1-0.9-0.4c-0.3-0.3-0.4-0.6-0.4-1c0-0.4,0.1-0.7,0.4-0.9c0.3-0.3,0.6-0.4,0.9-0.4c0.4,0,0.7,0.1,0.9,0.4
			s0.4,0.6,0.4,0.9s-0.1,0.7-0.4,1C286.7,86.8,286.4,87,286,87z"/>
		<path class="st1" d="M296.8,78.4c0.3-0.6,0.8-1,1.4-1.3c0.6-0.3,1.4-0.5,2.3-0.5v1.8c-0.1,0-0.2,0-0.4,0c-1,0-1.8,0.3-2.3,0.9
			c-0.6,0.6-0.8,1.4-0.8,2.5v5H295V76.7h1.7L296.8,78.4L296.8,78.4z"/>
		<path class="st1" d="M311.7,81.8c0,0.1,0,0.3,0,0.6h-8.2c0.1,0.9,0.5,1.6,1.2,2.2c0.7,0.5,1.5,0.8,2.5,0.8c1.2,0,2.2-0.4,2.9-1.2
			l1,1.2c-0.5,0.5-1,0.9-1.7,1.2c-0.7,0.3-1.4,0.4-2.3,0.4c-1.1,0-2-0.2-2.8-0.6c-0.8-0.4-1.5-1.1-1.9-1.9c-0.4-0.8-0.7-1.7-0.7-2.7
			c0-1,0.2-1.9,0.6-2.7c0.4-0.8,1-1.4,1.8-1.8c0.8-0.4,1.6-0.7,2.6-0.7c1,0,1.8,0.2,2.6,0.7c0.8,0.4,1.4,1,1.8,1.8
			C311.5,79.9,311.7,80.8,311.7,81.8L311.7,81.8z M306.7,78.2c-0.9,0-1.6,0.3-2.2,0.8c-0.6,0.5-0.9,1.2-1,2.1h6.5
			c-0.1-0.9-0.5-1.5-1-2.1C308.3,78.4,307.6,78.2,306.7,78.2z"/>
		<path class="st1" d="M314.3,72.7h1.8v14.2h-1.8V72.7z"/>
		<path class="st1" d="M323.2,76.6c1.4,0,2.5,0.3,3.2,1c0.7,0.7,1.1,1.7,1.1,3.1v6.1h-1.7v-1.3c-0.3,0.5-0.7,0.8-1.3,1.1
			c-0.6,0.2-1.2,0.4-2,0.4c-1.1,0-2-0.3-2.7-0.8c-0.7-0.5-1-1.3-1-2.2c0-0.9,0.3-1.6,1-2.1c0.6-0.5,1.7-0.8,3.1-0.8h2.9v-0.4
			c0-0.8-0.2-1.4-0.7-1.8c-0.5-0.4-1.1-0.6-2-0.6c-0.6,0-1.2,0.1-1.8,0.3c-0.6,0.2-1.1,0.5-1.4,0.8l-0.8-1.4c0.5-0.4,1.1-0.7,1.9-1
			C321.7,76.7,322.4,76.6,323.2,76.6L323.2,76.6z M322.8,85.5c0.7,0,1.3-0.2,1.8-0.5c0.5-0.3,0.9-0.8,1.1-1.3v-1.4h-2.8
			c-1.5,0-2.3,0.5-2.3,1.6c0,0.5,0.2,0.9,0.6,1.2S322.1,85.5,322.8,85.5L322.8,85.5z"/>
		<path class="st1" d="M336.6,86.3c-0.3,0.2-0.6,0.4-1,0.5c-0.4,0.1-0.8,0.2-1.2,0.2c-1,0-1.8-0.3-2.4-0.8c-0.6-0.5-0.8-1.3-0.8-2.3
			v-5.6h-1.7v-1.5h1.7v-2.2h1.8v2.2h2.9v1.5H333v5.5c0,0.5,0.1,1,0.4,1.3c0.3,0.3,0.7,0.4,1.2,0.4c0.6,0,1-0.2,1.4-0.5L336.6,86.3z"
			/>
		<path class="st1" d="M338.8,76.7h1.8v10.1h-1.8V76.7z M339.7,74.8c-0.4,0-0.7-0.1-0.9-0.3c-0.2-0.2-0.3-0.5-0.3-0.8
			s0.1-0.6,0.3-0.8c0.2-0.2,0.5-0.4,0.9-0.4c0.4,0,0.6,0.1,0.9,0.3c0.2,0.2,0.4,0.5,0.4,0.8c0,0.3-0.1,0.6-0.4,0.9
			C340.4,74.7,340.1,74.8,339.7,74.8z"/>
		<path class="st1" d="M353,76.7l-4.4,10.1h-1.9l-4.4-10.1h1.9l3.5,8.1l3.5-8.1H353z"/>
		<path class="st1" d="M363.6,81.8c0,0.1,0,0.3,0,0.6h-8.2c0.1,0.9,0.5,1.6,1.2,2.2c0.7,0.5,1.5,0.8,2.5,0.8c1.2,0,2.2-0.4,2.9-1.2
			l1,1.2c-0.5,0.5-1,0.9-1.7,1.2c-0.7,0.3-1.4,0.4-2.3,0.4c-1.1,0-2-0.2-2.8-0.6c-0.8-0.4-1.5-1.1-1.9-1.9c-0.4-0.8-0.7-1.7-0.7-2.7
			c0-1,0.2-1.9,0.6-2.7c0.4-0.8,1-1.4,1.8-1.8c0.8-0.4,1.6-0.7,2.6-0.7s1.8,0.2,2.6,0.7c0.8,0.4,1.4,1,1.8,1.8
			C363.4,79.9,363.6,80.8,363.6,81.8L363.6,81.8z M358.6,78.2c-0.9,0-1.6,0.3-2.2,0.8c-0.6,0.5-0.9,1.2-1,2.1h6.5
			c-0.1-0.9-0.5-1.5-1-2.1C360.2,78.4,359.5,78.2,358.6,78.2z"/>
		<path class="st1" d="M366.6,79.2c-0.4,0-0.7-0.1-0.9-0.4c-0.3-0.3-0.4-0.6-0.4-1c0-0.4,0.1-0.7,0.4-0.9c0.3-0.3,0.6-0.4,0.9-0.4
			c0.4,0,0.7,0.1,0.9,0.4c0.2,0.2,0.4,0.6,0.4,0.9c0,0.4-0.1,0.7-0.4,1C367.2,79.1,366.9,79.2,366.6,79.2z M366.6,84.3
			c0.4,0,0.6,0.1,0.9,0.4c0.2,0.2,0.4,0.5,0.4,0.9c0,0.2,0,0.4-0.1,0.6c0,0.2-0.1,0.5-0.2,0.8l-0.9,2.7h-1.2l0.7-2.8
			c-0.2-0.1-0.4-0.2-0.6-0.4c-0.1-0.2-0.2-0.5-0.2-0.7c0-0.4,0.1-0.7,0.4-0.9S366.2,84.3,366.6,84.3L366.6,84.3z"/>
		<path class="st1" d="M374.3,80.8v1.5h-0.6c-0.6,0-0.8,0.3-0.8,1v4.4c0,0.9-0.2,1.6-0.7,2.1c-0.5,0.5-1.2,0.7-2.1,0.7h-0.8V89h0.5
			c1,0,1.4-0.5,1.4-1.5v-4.2c0-0.5,0.1-0.9,0.2-1.2c0.2-0.3,0.4-0.5,0.8-0.6c-0.4-0.1-0.6-0.3-0.8-0.6c-0.2-0.3-0.2-0.7-0.2-1.2
			v-4.2c0-1-0.5-1.5-1.4-1.5h-0.5v-1.5h0.8c1,0,1.7,0.2,2.1,0.7c0.5,0.5,0.7,1.2,0.7,2.1v4.4c0,0.6,0.3,1,0.8,1H374.3z"/>
		<path class="st1" d="M175.4,11.6l-7,2.8l7,2.8v1.2l-8.3-3.3v-1.3l8.3-3.3V11.6z"/>
		<path class="st1" d="M183.7,11c1.3,0,2.3,0.4,3,1.1c0.7,0.7,1.1,1.8,1.1,3.2v5.8h-1.4v-5.7c0-1-0.3-1.8-0.8-2.4
			c-0.5-0.5-1.3-0.8-2.2-0.8c-1.1,0-1.9,0.3-2.6,1c-0.6,0.6-0.9,1.5-0.9,2.7v5.3h-1.4V6.9h1.4v5.9c0.4-0.6,0.9-1,1.5-1.4
			S182.9,11,183.7,11L183.7,11z"/>
		<path class="st1" d="M195.1,13.4c1.4,0.1,2.5,0.5,3.2,1.1c0.7,0.7,1.1,1.6,1.1,2.7c0,0.8-0.2,1.4-0.6,2c-0.4,0.6-0.9,1.1-1.6,1.4
			c-0.7,0.3-1.6,0.5-2.6,0.5c-1,0-1.9-0.2-2.7-0.5c-0.9-0.3-1.5-0.7-2.1-1.3l0.7-1.1c0.4,0.5,1,0.8,1.8,1.1c0.7,0.3,1.5,0.4,2.4,0.4
			c1.1,0,1.9-0.2,2.5-0.7c0.6-0.5,0.9-1.1,0.9-2c0-0.8-0.3-1.5-0.9-1.9c-0.6-0.5-1.5-0.7-2.7-0.7h-0.9v-1l3.7-4.6h-6.8V7.7h8.6v1
			L195.1,13.4L195.1,13.4z"/>
		<path class="st1" d="M209.9,13.8V15l-8.3,3.3v-1.2l7-2.8l-7-2.8v-1.2L209.9,13.8z"/>
		<path class="st1" d="M1231.6,104.8c0,0.5-0.1,0.9-0.2,1.2c-0.2,0.3-0.4,0.5-0.8,0.6c0.4,0.1,0.6,0.3,0.8,0.6
			c0.2,0.3,0.2,0.7,0.2,1.2v4.2c0,1,0.5,1.5,1.4,1.5h0.5v1.5h-0.8c-0.9,0-1.7-0.2-2.2-0.7c-0.5-0.5-0.7-1.2-0.7-2.1v-4.4
			c0-0.6-0.3-1-0.9-1h-0.7v-1.5h0.7c0.6,0,0.9-0.3,0.9-1v-4.4c0-0.9,0.2-1.6,0.7-2.1c0.5-0.5,1.2-0.7,2.2-0.7h0.8v1.5h-0.5
			c-0.9,0-1.4,0.5-1.4,1.5V104.8z"/>
		<path class="st1" d="M1241.3,111.2c-0.3,0.2-0.6,0.4-1,0.5c-0.4,0.1-0.8,0.2-1.2,0.2c-1,0-1.8-0.3-2.4-0.8
			c-0.6-0.5-0.8-1.3-0.8-2.3v-5.6h-1.7v-1.5h1.7v-2.2h1.8v2.2h2.9v1.5h-2.9v5.5c0,0.5,0.1,1,0.4,1.3s0.7,0.4,1.2,0.4
			c0.6,0,1-0.2,1.4-0.5L1241.3,111.2z"/>
		<path class="st1" d="M1252.2,106.8c0,0.1,0,0.3,0,0.6h-8.2c0.1,0.9,0.5,1.6,1.2,2.2c0.7,0.5,1.5,0.8,2.5,0.8
			c1.2,0,2.2-0.4,2.9-1.2l1,1.2c-0.5,0.5-1,0.9-1.7,1.2c-0.7,0.3-1.4,0.4-2.3,0.4c-1.1,0-2-0.2-2.8-0.6c-0.8-0.4-1.5-1.1-1.9-1.9
			s-0.7-1.7-0.7-2.7c0-1,0.2-1.9,0.6-2.7c0.4-0.8,1.1-1.4,1.8-1.8c0.8-0.4,1.6-0.7,2.6-0.7s1.8,0.2,2.6,0.7c0.8,0.4,1.3,1,1.8,1.8
			C1252,104.9,1252.2,105.8,1252.2,106.8L1252.2,106.8z M1247.2,103.1c-0.9,0-1.6,0.3-2.2,0.8c-0.6,0.5-0.9,1.2-1,2.1h6.5
			c-0.1-0.9-0.4-1.5-1-2.1C1248.8,103.4,1248.1,103.1,1247.2,103.1z"/>
		<path class="st1" d="M1260.9,111.8l-2.9-3.9l-2.9,3.9h-2l4-5.2l-3.8-4.9h2l2.8,3.6l2.8-3.6h2l-3.8,4.9l4,5.2H1260.9z"/>
		<path class="st1" d="M1270.7,111.2c-0.3,0.2-0.6,0.4-1,0.5c-0.4,0.1-0.8,0.2-1.2,0.2c-1,0-1.8-0.3-2.4-0.8s-0.8-1.3-0.8-2.3v-5.6
			h-1.7v-1.5h1.7v-2.2h1.8v2.2h2.9v1.5h-2.9v5.5c0,0.5,0.1,1,0.4,1.3c0.3,0.3,0.7,0.4,1.2,0.4c0.6,0,1-0.2,1.4-0.5L1270.7,111.2z"/>
		<path class="st1" d="M1272,105.8h5.1v1.6h-5.1V105.8z"/>
		<path class="st1" d="M1283.7,101.6c1.4,0,2.5,0.3,3.2,1c0.8,0.7,1.1,1.7,1.1,3.1v6.1h-1.7v-1.3c-0.3,0.5-0.7,0.8-1.3,1.1
			c-0.6,0.2-1.2,0.4-2,0.4c-1.1,0-2-0.3-2.7-0.8c-0.7-0.5-1-1.3-1-2.2s0.3-1.6,1-2.1c0.7-0.5,1.7-0.8,3.1-0.8h2.9v-0.4
			c0-0.8-0.2-1.4-0.7-1.8c-0.5-0.4-1.1-0.6-2-0.6c-0.6,0-1.2,0.1-1.8,0.3c-0.6,0.2-1,0.5-1.4,0.8l-0.8-1.4c0.5-0.4,1.1-0.7,1.9-1
			C1282.1,101.7,1282.9,101.6,1283.7,101.6L1283.7,101.6z M1283.3,110.5c0.7,0,1.3-0.2,1.8-0.5c0.5-0.3,0.9-0.8,1.1-1.3v-1.4h-2.8
			c-1.5,0-2.3,0.5-2.3,1.6c0,0.5,0.2,0.9,0.6,1.2C1282,110.3,1282.6,110.5,1283.3,110.5L1283.3,110.5z"/>
		<path class="st1" d="M1291.4,97.6h1.8v14.2h-1.8V97.6z"/>
		<path class="st1" d="M1296.7,101.7h1.8v10.1h-1.8V101.7z M1297.6,99.7c-0.3,0-0.7-0.1-0.9-0.3c-0.2-0.2-0.3-0.5-0.3-0.8
			c0-0.3,0.1-0.6,0.3-0.8c0.2-0.2,0.5-0.4,0.9-0.4c0.4,0,0.7,0.1,0.9,0.3c0.2,0.2,0.4,0.5,0.4,0.8c0,0.3-0.1,0.6-0.4,0.9
			C1298.3,99.6,1298,99.7,1297.6,99.7z"/>
		<path class="st1" d="M1311.6,101.7v8.7c0,1.8-0.4,3.1-1.3,3.9c-0.9,0.9-2.2,1.3-3.9,1.3c-0.9,0-1.9-0.1-2.7-0.4
			c-0.9-0.3-1.6-0.6-2.1-1.1l0.9-1.4c0.5,0.4,1.1,0.7,1.7,1c0.7,0.2,1.4,0.4,2.2,0.4c1.2,0,2-0.3,2.6-0.8c0.6-0.6,0.9-1.4,0.9-2.6
			v-0.8c-0.4,0.5-1,0.9-1.6,1.2c-0.6,0.3-1.3,0.4-2,0.4c-1,0-1.8-0.2-2.6-0.6c-0.8-0.4-1.4-1-1.8-1.7c-0.4-0.8-0.7-1.6-0.7-2.6
			c0-1,0.2-1.8,0.7-2.5c0.4-0.8,1.1-1.3,1.8-1.7c0.8-0.4,1.7-0.6,2.6-0.6c0.8,0,1.5,0.1,2.1,0.4c0.7,0.3,1.2,0.7,1.6,1.2v-1.6
			H1311.6z M1306.3,109.8c0.7,0,1.3-0.1,1.8-0.4s0.9-0.7,1.2-1.2c0.3-0.5,0.4-1.1,0.4-1.7c0-1-0.3-1.8-1-2.4
			c-0.7-0.6-1.5-0.9-2.5-0.9s-1.9,0.3-2.5,0.9c-0.7,0.6-1,1.4-1,2.4c0,0.6,0.2,1.2,0.4,1.7c0.3,0.5,0.7,0.9,1.2,1.2
			C1305.1,109.6,1305.7,109.8,1306.3,109.8z"/>
		<path class="st1" d="M1320.5,101.6c1.3,0,2.3,0.4,3,1.1c0.8,0.7,1.1,1.8,1.1,3.3v5.8h-1.8v-5.6c0-1-0.2-1.7-0.7-2.2
			c-0.5-0.5-1.1-0.7-2-0.7c-1,0-1.8,0.3-2.3,0.9c-0.6,0.6-0.8,1.4-0.8,2.5v5.2h-1.8v-10.1h1.8v1.5c0.4-0.5,0.9-0.9,1.5-1.2
			C1319,101.7,1319.7,101.6,1320.5,101.6L1320.5,101.6z"/>
		<path class="st1" d="M1328.5,104.2c-0.3,0-0.7-0.1-0.9-0.4c-0.3-0.3-0.4-0.6-0.4-1c0-0.4,0.1-0.7,0.4-0.9c0.3-0.3,0.6-0.4,0.9-0.4
			s0.7,0.1,0.9,0.4c0.3,0.2,0.4,0.6,0.4,0.9s-0.1,0.7-0.4,1C1329.1,104.1,1328.8,104.2,1328.5,104.2z M1328.5,111.9
			c-0.3,0-0.7-0.1-0.9-0.4c-0.3-0.3-0.4-0.6-0.4-1c0-0.4,0.1-0.7,0.4-0.9c0.3-0.3,0.6-0.4,0.9-0.4s0.7,0.1,0.9,0.4
			c0.3,0.2,0.4,0.6,0.4,0.9c0,0.4-0.1,0.7-0.4,1C1329.1,111.8,1328.8,111.9,1328.5,111.9z"/>
		<path class="st1" d="M1341.9,111.9c-1,0-1.9-0.2-2.8-0.7c-0.8-0.4-1.4-1.1-1.9-1.8c-0.5-0.8-0.7-1.7-0.7-2.7s0.2-1.9,0.7-2.7
			c0.5-0.8,1.1-1.4,1.9-1.8c0.8-0.4,1.7-0.7,2.8-0.7c0.9,0,1.7,0.2,2.4,0.6c0.7,0.4,1.3,0.9,1.7,1.6l-1.4,0.9
			c-0.3-0.5-0.7-0.8-1.2-1.1c-0.5-0.2-1-0.4-1.6-0.4c-0.7,0-1.3,0.1-1.8,0.4c-0.5,0.3-0.9,0.7-1.2,1.3c-0.3,0.5-0.4,1.2-0.4,1.9
			c0,0.7,0.1,1.3,0.4,1.9c0.3,0.5,0.7,0.9,1.2,1.2c0.5,0.3,1.1,0.4,1.8,0.4c0.6,0,1.1-0.1,1.6-0.4s0.9-0.6,1.2-1.1l1.4,0.9
			c-0.4,0.7-0.9,1.2-1.7,1.6C1343.6,111.7,1342.8,111.9,1341.9,111.9z"/>
		<path class="st1" d="M1357.3,106.8c0,0.1,0,0.3,0,0.6h-8.2c0.1,0.9,0.5,1.6,1.2,2.2c0.7,0.5,1.5,0.8,2.5,0.8
			c1.2,0,2.2-0.4,2.9-1.2l1,1.2c-0.5,0.5-1,0.9-1.7,1.2s-1.4,0.4-2.3,0.4c-1.1,0-2-0.2-2.8-0.6c-0.8-0.4-1.5-1.1-1.9-1.9
			c-0.4-0.8-0.7-1.7-0.7-2.7c0-1,0.2-1.9,0.7-2.7c0.4-0.8,1-1.4,1.8-1.8c0.8-0.4,1.6-0.7,2.6-0.7c1,0,1.8,0.2,2.6,0.7
			c0.8,0.4,1.4,1,1.8,1.8C1357.1,104.9,1357.3,105.8,1357.3,106.8z M1352.3,103.1c-0.9,0-1.6,0.3-2.2,0.8c-0.6,0.5-0.9,1.2-1,2.1
			h6.5c-0.1-0.9-0.4-1.5-1.1-2.1C1353.9,103.4,1353.2,103.1,1352.3,103.1z"/>
		<path class="st1" d="M1365.2,101.6c1.3,0,2.3,0.4,3,1.1c0.8,0.7,1.2,1.8,1.2,3.3v5.8h-1.8v-5.6c0-1-0.2-1.7-0.7-2.2
			c-0.5-0.5-1.2-0.7-2-0.7c-1,0-1.8,0.3-2.3,0.9c-0.6,0.6-0.9,1.4-0.9,2.5v5.2h-1.8v-10.1h1.8v1.5c0.4-0.5,0.9-0.9,1.5-1.2
			C1363.7,101.7,1364.4,101.6,1365.2,101.6L1365.2,101.6z"/>
		<path class="st1" d="M1378.5,111.2c-0.3,0.2-0.6,0.4-1,0.5c-0.4,0.1-0.8,0.2-1.2,0.2c-1,0-1.8-0.3-2.4-0.8s-0.8-1.3-0.8-2.3v-5.6
			h-1.7v-1.5h1.7v-2.2h1.8v2.2h2.9v1.5h-2.9v5.5c0,0.5,0.1,1,0.4,1.3c0.3,0.3,0.7,0.4,1.2,0.4c0.6,0,1-0.2,1.4-0.5L1378.5,111.2z"/>
		<path class="st1" d="M1389.4,106.8c0,0.1,0,0.3,0,0.6h-8.2c0.1,0.9,0.5,1.6,1.2,2.2c0.7,0.5,1.5,0.8,2.5,0.8
			c1.2,0,2.2-0.4,2.9-1.2l1,1.2c-0.5,0.5-1,0.9-1.7,1.2c-0.7,0.3-1.4,0.4-2.3,0.4c-1.1,0-2-0.2-2.8-0.6c-0.8-0.4-1.5-1.1-1.9-1.9
			c-0.4-0.8-0.7-1.7-0.7-2.7c0-1,0.2-1.9,0.7-2.7c0.4-0.8,1.1-1.4,1.8-1.8c0.8-0.4,1.6-0.7,2.6-0.7c1,0,1.8,0.2,2.6,0.7
			c0.8,0.4,1.3,1,1.8,1.8C1389.2,104.9,1389.4,105.8,1389.4,106.8z M1384.4,103.1c-0.9,0-1.6,0.3-2.2,0.8c-0.6,0.5-0.9,1.2-1,2.1
			h6.5c-0.1-0.9-0.4-1.5-1-2.1C1386,103.4,1385.3,103.1,1384.4,103.1z"/>
		<path class="st1" d="M1393.7,103.4c0.3-0.6,0.8-1,1.4-1.3c0.6-0.3,1.4-0.5,2.3-0.5v1.8c-0.1,0-0.2,0-0.4,0c-1,0-1.8,0.3-2.3,0.9
			c-0.6,0.6-0.8,1.4-0.8,2.5v5h-1.8v-10.1h1.8L1393.7,103.4z"/>
		<path class="st1" d="M1400.3,104.2c-0.4,0-0.7-0.1-0.9-0.4c-0.3-0.3-0.4-0.6-0.4-1c0-0.4,0.1-0.7,0.4-0.9c0.3-0.3,0.6-0.4,0.9-0.4
			s0.7,0.1,0.9,0.4c0.2,0.2,0.3,0.6,0.3,0.9s-0.1,0.7-0.4,1C1400.9,104.1,1400.6,104.2,1400.3,104.2z M1400.3,109.3
			c0.3,0,0.7,0.1,0.9,0.4c0.2,0.2,0.3,0.5,0.3,0.9c0,0.2,0,0.4-0.1,0.6c0,0.2-0.1,0.5-0.3,0.8l-0.9,2.7h-1.2l0.7-2.8
			c-0.2-0.1-0.4-0.2-0.6-0.4c-0.1-0.2-0.2-0.5-0.2-0.7c0-0.4,0.1-0.7,0.4-0.9C1399.6,109.4,1400,109.3,1400.3,109.3L1400.3,109.3z"
			/>
		<path class="st1" d="M1408,105.8v1.5h-0.7c-0.6,0-0.8,0.3-0.8,1v4.4c0,0.9-0.3,1.6-0.8,2.1c-0.5,0.5-1.2,0.7-2.2,0.7h-0.8V114h0.5
			c1,0,1.4-0.5,1.4-1.5v-4.2c0-0.5,0.1-0.9,0.2-1.2c0.2-0.3,0.4-0.5,0.8-0.6c-0.4-0.1-0.6-0.3-0.8-0.6c-0.2-0.3-0.2-0.7-0.2-1.2
			v-4.2c0-1-0.5-1.5-1.4-1.5h-0.5v-1.5h0.8c0.9,0,1.7,0.2,2.2,0.7c0.5,0.5,0.8,1.2,0.8,2.1v4.4c0,0.6,0.3,1,0.8,1L1408,105.8z"/>
		<path class="st1" d="M118.9,100.8l-10.5,4.2l10.5,4.2v1.8l-12.4-5V104l12.4-5V100.8z"/>
		<path class="st1" d="M131.4,99.8c1.9,0,3.4,0.6,4.5,1.7c1.1,1.1,1.7,2.7,1.7,4.8v8.7h-2v-8.5c0-1.6-0.4-2.8-1.2-3.6
			c-0.8-0.8-1.9-1.2-3.3-1.2c-1.6,0-2.9,0.5-3.9,1.5c-0.9,1-1.4,2.3-1.4,4v7.9h-2V93.7h2v8.8c0.6-0.9,1.3-1.6,2.3-2
			C129.1,100,130.2,99.8,131.4,99.8L131.4,99.8z"/>
		<path class="st1" d="M156.2,108.1h-12.6c0.1,1.6,0.7,2.8,1.8,3.8c1.1,1,2.5,1.4,4.1,1.4c0.9,0,1.8-0.2,2.6-0.5
			c0.8-0.3,1.5-0.8,2-1.5l1.1,1.3c-0.7,0.8-1.5,1.4-2.5,1.8c-1,0.4-2.1,0.6-3.3,0.6c-1.5,0-2.9-0.3-4.1-1c-1.2-0.7-2.1-1.6-2.8-2.7
			c-0.7-1.2-1-2.5-1-4s0.3-2.8,0.9-4c0.6-1.2,1.5-2.1,2.6-2.7c1.1-0.6,2.4-1,3.8-1s2.6,0.3,3.7,1c1.1,0.7,2,1.6,2.6,2.7
			c0.6,1.1,0.9,2.5,0.9,4L156.2,108.1z M149,101.5c-1.4,0-2.7,0.5-3.7,1.4c-1,0.9-1.5,2.1-1.7,3.6h10.6c-0.1-1.5-0.7-2.7-1.7-3.6
			C151.7,102,150.4,101.5,149,101.5z"/>
		<path class="st1" d="M165.2,99.8c2,0,3.5,0.5,4.5,1.5c1,1,1.6,2.4,1.6,4.4v9.3h-1.9v-2.3c-0.5,0.8-1.1,1.4-2,1.8
			c-0.9,0.4-1.9,0.7-3.1,0.7c-1.7,0-3-0.4-4-1.2c-1-0.8-1.5-1.9-1.5-3.2c0-1.3,0.5-2.3,1.4-3.1c0.9-0.8,2.4-1.2,4.4-1.2h4.8v-0.9
			c0-1.3-0.4-2.3-1.1-2.9c-0.7-0.7-1.8-1-3.2-1c-1,0-1.9,0.2-2.7,0.5c-0.9,0.3-1.6,0.7-2.3,1.3l-0.9-1.5c0.8-0.6,1.7-1.1,2.7-1.5
			C162.9,100,164,99.8,165.2,99.8L165.2,99.8z M164.5,113.5c1.1,0,2.1-0.3,2.9-0.8c0.8-0.5,1.4-1.3,1.8-2.3V108h-4.7
			c-2.6,0-3.9,0.9-3.9,2.7c0,0.9,0.3,1.6,1,2.1C162.4,113.3,163.3,113.5,164.5,113.5z"/>
		<path class="st1" d="M190.5,93.7V115h-1.9v-3c-0.6,1-1.4,1.8-2.4,2.3c-1,0.5-2.1,0.8-3.4,0.8c-1.4,0-2.7-0.3-3.8-1
			c-1.1-0.7-2-1.6-2.7-2.7c-0.6-1.2-1-2.5-1-4s0.3-2.8,1-4c0.6-1.2,1.5-2.1,2.7-2.7c1.1-0.7,2.4-1,3.8-1c1.2,0,2.3,0.3,3.3,0.8
			c1,0.5,1.8,1.2,2.4,2.2v-9.1L190.5,93.7L190.5,93.7z M183,113.3c1,0,2-0.2,2.8-0.7c0.9-0.5,1.5-1.2,2-2.1c0.5-0.9,0.7-1.9,0.7-3.1
			s-0.2-2.2-0.7-3.1c-0.5-0.9-1.1-1.6-2-2.1c-0.8-0.5-1.8-0.7-2.8-0.7c-1.1,0-2,0.2-2.9,0.7c-0.8,0.5-1.5,1.2-2,2.1
			c-0.5,0.9-0.7,1.9-0.7,3.1s0.2,2.2,0.7,3.1c0.5,0.9,1.2,1.6,2,2.1C181,113.1,181.9,113.3,183,113.3z"/>
		<path class="st1" d="M209.3,108.1h-12.6c0.1,1.6,0.7,2.8,1.8,3.8c1.1,1,2.5,1.4,4.1,1.4c0.9,0,1.8-0.2,2.6-0.5
			c0.8-0.3,1.5-0.8,2-1.5l1.1,1.3c-0.7,0.8-1.5,1.4-2.5,1.8c-1,0.4-2.1,0.6-3.3,0.6c-1.5,0-2.9-0.3-4.1-1c-1.2-0.7-2.1-1.6-2.8-2.7
			c-0.7-1.2-1-2.5-1-4s0.3-2.8,0.9-4c0.6-1.2,1.5-2.1,2.6-2.7c1.1-0.6,2.4-1,3.8-1s2.6,0.3,3.7,1c1.1,0.7,2,1.6,2.6,2.7
			c0.6,1.1,0.9,2.5,0.9,4L209.3,108.1z M202,101.5c-1.4,0-2.7,0.5-3.7,1.4c-1,0.9-1.5,2.1-1.7,3.6h10.6c-0.1-1.5-0.7-2.7-1.7-3.6
			C204.7,102,203.5,101.5,202,101.5z"/>
		<path class="st1" d="M215.4,102.8c0.5-1,1.2-1.8,2.1-2.3c1-0.5,2.1-0.8,3.5-0.8v2l-0.5,0c-1.6,0-2.8,0.5-3.7,1.5s-1.3,2.3-1.3,4.1
			v7.7h-2V99.9h1.9L215.4,102.8L215.4,102.8z"/>
		<path class="st1" d="M236.4,104v1.9l-12.4,5v-1.8l10.5-4.2l-10.5-4.2V99L236.4,104z"/>
		<path class="st1" d="M1193.2,45.1l-10.5,4.2l10.5,4.2v1.8l-12.4-5v-1.9l12.4-5V45.1z"/>
		<path class="st1" d="M1203,39.6c-0.9,0-1.5,0.2-2,0.7c-0.4,0.5-0.7,1.2-0.7,2.1v1.8h4.6v1.7h-4.6v13.3h-2V45.9h-2.7v-1.7h2.7v-1.9
			c0-1.4,0.4-2.5,1.2-3.3c0.8-0.8,1.9-1.2,3.4-1.2c0.6,0,1.1,0.1,1.7,0.3c0.5,0.2,1,0.4,1.3,0.7l-0.7,1.5
			C1204.6,39.8,1203.9,39.6,1203,39.6z"/>
		<path class="st1" d="M1213.6,59.4c-1.4,0-2.8-0.3-3.9-1c-1.2-0.7-2.1-1.6-2.7-2.8c-0.7-1.2-1-2.5-1-4c0-1.5,0.3-2.8,1-4
			c0.7-1.2,1.6-2.1,2.7-2.7c1.2-0.6,2.5-1,3.9-1c1.4,0,2.8,0.3,3.9,1c1.2,0.6,2.1,1.6,2.7,2.7c0.7,1.2,1,2.5,1,4c0,1.5-0.3,2.8-1,4
			c-0.7,1.2-1.6,2.1-2.7,2.8C1216.3,59.1,1215,59.4,1213.6,59.4z M1213.6,57.6c1.1,0,2-0.2,2.8-0.7c0.9-0.5,1.5-1.2,2-2.1
			c0.5-0.9,0.7-1.9,0.7-3.1s-0.2-2.2-0.7-3.1s-1.1-1.6-2-2.1c-0.8-0.5-1.8-0.7-2.8-0.7s-2,0.2-2.9,0.7c-0.8,0.5-1.5,1.2-2,2.1
			c-0.5,0.9-0.7,1.9-0.7,3.1s0.2,2.2,0.7,3.1c0.5,0.9,1.2,1.6,2,2.1C1211.6,57.4,1212.5,57.6,1213.6,57.6z"/>
		<path class="st1" d="M1231.5,59.4c-1.4,0-2.8-0.3-3.9-1c-1.2-0.7-2.1-1.6-2.8-2.8c-0.7-1.2-1-2.5-1-4c0-1.5,0.3-2.8,1-4
			c0.7-1.2,1.6-2.1,2.8-2.7c1.2-0.6,2.4-1,3.9-1s2.8,0.3,3.9,1c1.2,0.6,2.1,1.6,2.7,2.7c0.7,1.2,1,2.5,1,4c0,1.5-0.3,2.8-1,4
			c-0.7,1.2-1.6,2.1-2.7,2.8C1234.3,59.1,1233,59.4,1231.5,59.4z M1231.5,57.6c1.1,0,2-0.2,2.9-0.7c0.8-0.5,1.5-1.2,2-2.1
			c0.5-0.9,0.7-1.9,0.7-3.1s-0.2-2.2-0.7-3.1c-0.5-0.9-1.2-1.6-2-2.1c-0.8-0.5-1.8-0.7-2.9-0.7s-2,0.2-2.9,0.7
			c-0.8,0.5-1.5,1.2-2,2.1c-0.5,0.9-0.7,1.9-0.7,3.1s0.2,2.2,0.7,3.1c0.5,0.9,1.2,1.6,2,2.1C1229.5,57.4,1230.4,57.6,1231.5,57.6z"
			/>
		<path class="st1" d="M1251.2,58.4c-0.4,0.3-0.9,0.6-1.4,0.8c-0.6,0.2-1.1,0.3-1.8,0.3c-1.4,0-2.5-0.4-3.3-1.1s-1.1-1.8-1.1-3.2
			v-9.1h-2.7v-1.7h2.7v-3.3h2v3.3h4.6v1.7h-4.6v9c0,0.9,0.2,1.6,0.7,2.1c0.5,0.5,1.1,0.7,1.9,0.7c0.4,0,0.8-0.1,1.2-0.2
			c0.4-0.1,0.8-0.3,1-0.6L1251.2,58.4z"/>
		<path class="st1" d="M1267.4,52.4h-12.6c0.1,1.6,0.7,2.8,1.8,3.8c1.1,1,2.4,1.4,4.1,1.4c0.9,0,1.8-0.2,2.6-0.5
			c0.8-0.3,1.4-0.8,2-1.5l1.2,1.3c-0.7,0.8-1.5,1.4-2.5,1.8c-1,0.4-2.1,0.6-3.3,0.6c-1.5,0-2.9-0.3-4.1-1c-1.2-0.7-2.1-1.6-2.8-2.8
			s-1-2.5-1-4c0-1.5,0.3-2.8,0.9-4c0.7-1.2,1.5-2.1,2.6-2.7c1.1-0.6,2.4-1,3.8-1c1.4,0,2.6,0.3,3.8,1c1.1,0.6,2,1.6,2.6,2.7
			c0.6,1.1,0.9,2.5,0.9,4L1267.4,52.4z M1260.1,45.8c-1.4,0-2.7,0.5-3.6,1.4c-1,0.9-1.5,2.1-1.7,3.6h10.7c-0.1-1.5-0.7-2.7-1.7-3.6
			C1262.8,46.3,1261.6,45.8,1260.1,45.8z"/>
		<path class="st1" d="M1273.5,47.2c0.5-1,1.2-1.8,2.1-2.3c0.9-0.5,2.1-0.8,3.5-0.8v2l-0.5,0c-1.6,0-2.8,0.5-3.7,1.5
			c-0.9,1-1.3,2.3-1.3,4.1v7.7h-2V44.2h1.9L1273.5,47.2L1273.5,47.2z"/>
		<path class="st1" d="M1294.6,48.3v1.9l-12.4,5v-1.8l10.5-4.2l-10.5-4.2v-1.8L1294.6,48.3z"/>
	</g>
</g>
</svg>
