<svg xmlns="http://www.w3.org/2000/svg" viewBox="0 0 31.86 35"><defs><style>.cls-1{fill:#fff;}.cls-2{fill:#eaebec;}.cls-3{fill:#f0be25;}.cls-4{fill:#e4a126;}</style></defs><title>Ресурс 3</title><g id="Слой_2" data-name="Слой 2"><g id="svg64"><path id="path118" class="cls-1" d="M.11,0V.39C.11.6.75,7.68,1.53,16.12L3,31.46,9.3,33.19c3.5.94,6.43,1.73,6.52,1.73s3.06-.77,6.61-1.72c5.68-1.52,6.44-1.75,6.49-1.94S31.75.56,31.75.23V0H.11Z"/><path id="path88" class="cls-2" d="M9.35,33.29,2.94,31.55l-.08-.46C2.78,30.68,0,.56,0,.16,0,0,1.62,0,15.93,0,31,0,31.86,0,31.86.18c0,.74-2.89,31.27-3,31.33S16.4,34.94,16,35c-.12,0-3.1-.76-6.63-1.71ZM20,27.15c2.16-.58,4-1.08,4-1.12s.29-2.51.56-5.51.52-5.64.55-5.88l.07-.44H15.82V18h5l-.05.23c0,.13-.13,1.23-.24,2.45a12.76,12.76,0,0,1-.31,2.33,18.43,18.43,0,0,1-2.27.68l-2.16.56v1.95a5.9,5.9,0,0,0,.12,2c.06,0,1.88-.47,4-1Zm5.1-15.36c-.07-.51-.7-7.32-.7-7.58S24,4,20.15,4H15.93v4l1.9.07c1,0,2.14.1,2.44.14l.54.06.13,1.57c.07.86.16,1.74.19,1.95l.06.39h3.95Z"/><path id="path80" class="cls-3" d="M9.3,33.19,3,31.46,1.53,16.12C.75,7.68.11.6.11.39V0H31.75V.23c0,.33-2.78,30.77-2.83,31s-.81.42-6.49,1.94c-3.55.95-6.52,1.73-6.61,1.72s-3-.79-6.52-1.73Zm10.68-6c2.2-.59,4-1.13,4.06-1.19s.3-2.66.59-5.79.53-5.76.56-5.86-.32-.18-6.77-.18H11.59l.29-3c.16-1.64.29-3,.3-3l2.23-.07a47.69,47.69,0,0,1,6.26.24s.39,3.27.39,3.71c0,.22,0,.23,2.07.23H25.2l-.05-.45c0-.24-.2-2.12-.39-4.17L24.42,4l-8,0c-6.35,0-8,0-8,.11s0,.52-.1,1C8.2,6.25,7.16,17.58,7.16,17.89v.25h13.6l-.06.39c0,.21-.14,1.3-.24,2.41A16.79,16.79,0,0,1,20.22,23c-.1.1-4.1,1.13-4.35,1.13s-1.15-.25-2.29-.56L11.49,23l-.07-.87c-.05-.48-.11-1.16-.15-1.52L11.21,20H7.16v.38c0,.73.49,5.63.56,5.7s7.85,2.19,8.09,2.2c.09,0,2-.48,4.16-1.07Z"/><path id="path78" class="cls-4" d="M9.3,33.19,3,31.46,1.53,16.12C.75,7.68.11.6.11.39V0H31.75V.23c0,.33-2.78,30.77-2.83,31s-.81.42-6.49,1.94c-3.55.95-6.52,1.73-6.61,1.72s-3-.79-6.52-1.73Zm11.86-2.31c2.8-.75,5.14-1.42,5.2-1.48S28.88,3.63,28.87,2.77V2.49H15.93V3.94H12.19c-2.92,0-3.74,0-3.75.13s0,.52-.1,1C8.2,6.25,7.16,17.58,7.16,17.89v.25h8.77v3c0,2.33,0,3-.14,3s-1.07-.25-2.21-.56L11.49,23l-.07-.87c-.05-.48-.11-1.16-.15-1.52L11.21,20H7.16v.38a51,51,0,0,0,.62,5.72c.07.05,1.93.56,4.13,1.16l4,1.07v1.95a13.49,13.49,0,0,0,.07,2s2.36-.62,5.16-1.36ZM11.87,11.25c.15-1.63.3-3,.32-3a17.93,17.93,0,0,1,1.89-.09l1.85-.05V14.2H11.59Z"/></g></g></svg>